G04*
G04 #@! TF.GenerationSoftware,Altium Limited,Altium Designer,24.0.1 (36)*
G04*
G04 Layer_Color=16711935*
%FSLAX25Y25*%
%MOIN*%
G70*
G04*
G04 #@! TF.SameCoordinates,BD3E70BB-0697-4B71-9AF7-6C14A59E7EE9*
G04*
G04*
G04 #@! TF.FilePolarity,Positive*
G04*
G01*
G75*
%ADD19C,0.00300*%
%ADD115C,0.00394*%
%ADD116C,0.00000*%
%ADD117C,0.00100*%
D19*
X46900Y134334D02*
X48999Y132235D01*
X46900D02*
X48999Y134334D01*
X46900Y133284D02*
X48999D01*
X47949Y132235D02*
Y134334D01*
D115*
X153052Y66692D02*
G03*
X153052Y66692I-1969J0D01*
G01*
X99714Y130081D02*
X102219Y132586D01*
X94981Y134814D02*
X97487Y137319D01*
X94981Y134814D02*
X99714Y130081D01*
X97487Y137319D02*
X102219Y132586D01*
X92914Y123281D02*
X95419Y125786D01*
X88181Y128014D02*
X90687Y130519D01*
X88181Y128014D02*
X92914Y123281D01*
X90687Y130519D02*
X95419Y125786D01*
X131674Y40842D02*
X134458Y43626D01*
X126942Y45574D02*
X129726Y48358D01*
X126942Y45574D02*
X131674Y40842D01*
X129726Y48358D02*
X134458Y43626D01*
X121773Y43824D02*
X130124Y35473D01*
X117876Y39927D02*
X126227Y31576D01*
X130124Y35473D01*
X117876Y39927D02*
X121773Y43824D01*
X109000Y44426D02*
X147974Y83400D01*
X70026D02*
X109000Y44426D01*
X70026Y83400D02*
X109000Y122374D01*
X147974Y83400D01*
X146582Y82008D02*
Y84792D01*
X172609Y43391D02*
X176350Y47131D01*
Y43391D02*
Y54809D01*
X170050D02*
X176350D01*
X170050Y43391D02*
Y54809D01*
Y43391D02*
X176350D01*
X30797Y57202D02*
Y70998D01*
X56403D01*
X56403Y57202D02*
X56403Y70998D01*
X30797Y57202D02*
X56403D01*
X30797Y66218D02*
X39813Y57202D01*
X90042Y37526D02*
X92826Y34742D01*
X94774Y42258D02*
X97558Y39474D01*
X90042Y37526D02*
X94774Y42258D01*
X92826Y34742D02*
X97558Y39474D01*
X78802Y11754D02*
X91598D01*
X78802Y18447D02*
X91598D01*
Y11754D02*
Y18447D01*
X78802Y11754D02*
Y18447D01*
X183528Y91125D02*
X187072D01*
X183528Y97818D02*
X187072D01*
X183528Y91125D02*
Y97818D01*
X187072Y91125D02*
Y97818D01*
X159992Y52772D02*
X171127Y63908D01*
X146072Y66692D02*
X157208Y77828D01*
X171127Y63908D01*
X146072Y66692D02*
X159992Y52772D01*
X129276Y115673D02*
X137627Y124024D01*
X133173Y111776D02*
X141525Y120127D01*
X137627Y124024D02*
X141525Y120127D01*
X129276Y115673D02*
X133173Y111776D01*
X166126Y85558D02*
X170858Y80826D01*
X163342Y82774D02*
X168074Y78042D01*
X163342Y82774D02*
X166126Y85558D01*
X168074Y78042D02*
X170858Y80826D01*
X155339Y92944D02*
X157844Y90438D01*
X160071Y97677D02*
X162577Y95171D01*
X155339Y92944D02*
X160071Y97677D01*
X157844Y90438D02*
X162577Y95171D01*
X158869Y107847D02*
X163602Y103115D01*
X161653Y110631D02*
X166385Y105898D01*
X163602Y103115D02*
X166385Y105898D01*
X158869Y107847D02*
X161653Y110631D01*
X150415Y116302D02*
X155147Y111569D01*
X153199Y119085D02*
X157931Y114353D01*
X155147Y111569D02*
X157931Y114353D01*
X150415Y116302D02*
X153199Y119085D01*
X93986Y133819D02*
X98719Y129086D01*
X91481Y131314D02*
X96214Y126581D01*
X91481Y131314D02*
X93986Y133819D01*
X96214Y126581D02*
X98719Y129086D01*
X84575Y124441D02*
X87359Y127225D01*
X89308Y119708D02*
X92092Y122492D01*
X87359Y127225D02*
X92092Y122492D01*
X84575Y124441D02*
X89308Y119708D01*
X72628Y131746D02*
X72628Y125054D01*
X76172D02*
X76172Y131746D01*
X72628Y125054D02*
X76172D01*
X72628Y131746D02*
X76172D01*
X27763Y125561D02*
X35637D01*
X27763Y120639D02*
X35637Y120639D01*
X27763Y120639D02*
Y125561D01*
X35637Y120639D02*
Y125561D01*
X36372Y129525D02*
Y136218D01*
X32828Y129525D02*
Y136218D01*
X36372Y136218D01*
X32828Y129525D02*
X36372D01*
X30572Y136232D02*
X30572Y129539D01*
X27028Y129539D02*
Y136232D01*
X30572Y136232D01*
X27028Y129539D02*
X30572Y129539D01*
X46603Y47069D02*
X53296D01*
X46603Y43132D02*
X53296D01*
X46603D02*
Y47069D01*
X53296Y43132D02*
X53296Y47069D01*
X46603Y41668D02*
X53296D01*
X46603Y37732D02*
X53296D01*
X46603Y41668D02*
X46603Y37732D01*
X53296D02*
Y41668D01*
X33953Y37732D02*
X40646Y37732D01*
X33953Y41668D02*
X40646D01*
Y37732D02*
Y41668D01*
X33953Y37732D02*
Y41668D01*
Y43132D02*
X40646D01*
X33954Y47069D02*
X40646D01*
Y43132D02*
Y47069D01*
X33953Y43132D02*
X33954Y47069D01*
X143532Y23554D02*
X147468Y23553D01*
X143532Y30246D02*
X147468D01*
X143532Y23554D02*
Y30246D01*
X147468Y23553D02*
Y30246D01*
X193350Y18701D02*
Y31299D01*
X187050Y18701D02*
Y31299D01*
X193350Y31299D01*
X187050Y18701D02*
X193350D01*
X176171Y70123D02*
X178677Y72629D01*
X171439Y74856D02*
X173944Y77362D01*
X171439Y74856D02*
X176171Y70123D01*
X173944Y77362D02*
X178677Y72629D01*
X159181Y89086D02*
X161686Y86581D01*
X163914Y93819D02*
X166419Y91313D01*
X159181Y89086D02*
X163914Y93819D01*
X161686Y86581D02*
X166419Y91313D01*
X172074Y82042D02*
X174858Y84826D01*
X167342Y86774D02*
X170126Y89558D01*
X167342Y86774D02*
X172074Y82042D01*
X170126Y89558D02*
X174858Y84826D01*
X138469Y110053D02*
X143201Y114785D01*
X141253Y107269D02*
X145985Y112002D01*
X138469Y110053D02*
X141253Y107269D01*
X143201Y114785D02*
X145985Y112002D01*
X145114Y132019D02*
X147619Y129514D01*
X140381Y127286D02*
X142886Y124781D01*
X147619Y129514D01*
X140381Y127286D02*
X145114Y132019D01*
X85542Y42226D02*
X90274Y46958D01*
X88326Y39442D02*
X93058Y44174D01*
X85542Y42226D02*
X88326Y39442D01*
X90274Y46958D02*
X93058Y44174D01*
X112446Y31628D02*
Y35172D01*
X105754Y31628D02*
Y35172D01*
Y31628D02*
X112446D01*
X105754Y35172D02*
X112446D01*
X135314Y44681D02*
X137819Y47186D01*
X130581Y49414D02*
X133086Y51919D01*
X130581Y49414D02*
X135314Y44681D01*
X133086Y51919D02*
X137819Y47186D01*
X81713Y55319D02*
X84219Y52814D01*
X76981Y50586D02*
X79486Y48081D01*
X84219Y52814D01*
X76981Y50586D02*
X81713Y55319D01*
X67881Y59986D02*
X70386Y57481D01*
X72614Y64719D02*
X75119Y62213D01*
X67881Y59986D02*
X72614Y64719D01*
X70386Y57481D02*
X75119Y62213D01*
X139242Y57574D02*
X143974Y52842D01*
X142026Y60358D02*
X146758Y55626D01*
X143974Y52842D02*
X146758Y55626D01*
X139242Y57574D02*
X142026Y60358D01*
X99142Y138674D02*
X103874Y133942D01*
X101926Y141458D02*
X106658Y136726D01*
X103874Y133942D02*
X106658Y136726D01*
X99142Y138674D02*
X101926Y141458D01*
X62520Y101785D02*
X67253Y97053D01*
X60015Y99280D02*
X64747Y94547D01*
X60015Y99280D02*
X62520Y101785D01*
X64747Y94547D02*
X67253Y97053D01*
X70545Y109971D02*
X73329Y112755D01*
X75278Y105238D02*
X78061Y108022D01*
X73329Y112755D02*
X78061Y108022D01*
X70545Y109971D02*
X75278Y105238D01*
X66020Y105385D02*
X70753Y100653D01*
X63515Y102880D02*
X68247Y98147D01*
X63515Y102880D02*
X66020Y105385D01*
X68247Y98147D02*
X70753Y100653D01*
X69520Y108885D02*
X74253Y104153D01*
X67015Y106380D02*
X71747Y101647D01*
X67015Y106380D02*
X69520Y108885D01*
X71747Y101647D02*
X74253Y104153D01*
X136242Y131426D02*
X140974Y136158D01*
X139026Y128642D02*
X143758Y133374D01*
X136242Y131426D02*
X139026Y128642D01*
X140974Y136158D02*
X143758Y133374D01*
X144381Y123286D02*
X146886Y120781D01*
X149114Y128019D02*
X151619Y125514D01*
X144381Y123286D02*
X149114Y128019D01*
X146886Y120781D02*
X151619Y125514D01*
X119047Y138931D02*
X121831Y136147D01*
X114315Y134199D02*
X117098Y131415D01*
X121831Y136147D01*
X114315Y134199D02*
X119047Y138931D01*
X115474Y142558D02*
X118258Y139774D01*
X110742Y137826D02*
X113526Y135042D01*
X118258Y139774D01*
X110742Y137826D02*
X115474Y142558D01*
X122547Y135431D02*
X125331Y132647D01*
X117815Y130699D02*
X120598Y127915D01*
X125331Y132647D01*
X117815Y130699D02*
X122547Y135431D01*
X124842Y123726D02*
X129574Y128458D01*
X127626Y120942D02*
X132358Y125674D01*
X124842Y123726D02*
X127626Y120942D01*
X129574Y128458D02*
X132358Y125674D01*
X126074Y131958D02*
X128858Y129174D01*
X121342Y127226D02*
X124126Y124442D01*
X128858Y129174D01*
X121342Y127226D02*
X126074Y131958D01*
X57926Y97158D02*
X62658Y92426D01*
X55142Y94374D02*
X59874Y89642D01*
X55142Y94374D02*
X57926Y97158D01*
X59874Y89642D02*
X62658Y92426D01*
X51442Y90574D02*
X56174Y85842D01*
X54226Y93358D02*
X58958Y88626D01*
X56174Y85842D02*
X58958Y88626D01*
X51442Y90574D02*
X54226Y93358D01*
D116*
X54100Y137010D02*
G03*
X56500Y137010I1200J0D01*
G01*
D117*
X46650Y137010D02*
X46650Y120110D01*
X46650Y137010D02*
X63950D01*
X63950Y120110D01*
X46650Y120110D02*
X63950Y120110D01*
X63950Y134560D02*
X69650Y134560D01*
X69650Y132560D01*
X63950Y132560D02*
X69650Y132560D01*
X63950Y134560D02*
X63950Y132560D01*
X63950Y124560D02*
X69650Y124560D01*
Y122560D02*
Y124560D01*
X63950Y122560D02*
X69650Y122560D01*
X63950Y124560D02*
X63950Y122560D01*
X40950D02*
X46650D01*
X40950D02*
Y124560D01*
X46650D01*
X46650Y122560D01*
X40950Y132560D02*
X46650D01*
X40950D02*
X40950Y134560D01*
X46650Y134560D01*
Y132560D02*
Y134560D01*
M02*
