G04*
G04 #@! TF.GenerationSoftware,Altium Limited,Altium Designer,24.0.1 (36)*
G04*
G04 Layer_Color=65535*
%FSLAX25Y25*%
%MOIN*%
G70*
G04*
G04 #@! TF.SameCoordinates,BD3E70BB-0697-4B71-9AF7-6C14A59E7EE9*
G04*
G04*
G04 #@! TF.FilePolarity,Positive*
G04*
G01*
G75*
%ADD10C,0.00984*%
%ADD11C,0.01000*%
%ADD12C,0.01968*%
%ADD13C,0.02362*%
%ADD14C,0.00787*%
%ADD15C,0.00600*%
%ADD16C,0.00598*%
%ADD17C,0.00591*%
%ADD18C,0.01181*%
%ADD19C,0.00300*%
G36*
X78700Y109133D02*
X79681Y110114D01*
X80529Y109265D01*
X79548Y108284D01*
X78700Y109133D01*
D01*
D02*
G37*
G36*
X83167Y113600D02*
X82186Y112619D01*
X83035Y111771D01*
X84016Y112752D01*
X83167Y113600D01*
D01*
D02*
G37*
G36*
X83815Y114818D02*
X84796Y115799D01*
X85644Y114950D01*
X84663Y113969D01*
X83815Y114818D01*
D01*
D02*
G37*
G36*
X88282Y119285D02*
X87301Y118304D01*
X88150Y117456D01*
X89131Y118437D01*
X88282Y119285D01*
D01*
D02*
G37*
G36*
X163132Y133577D02*
X166223D01*
Y134777D01*
X163132D01*
X163132Y133577D01*
D01*
D02*
G37*
G36*
X175868D02*
X172777D01*
Y134777D01*
X175868D01*
X175868Y133577D01*
D01*
D02*
G37*
G36*
X191368Y133477D02*
X188277D01*
Y134677D01*
X191368D01*
X191368Y133477D01*
D02*
G37*
G36*
X181723D02*
X178632D01*
X178632Y134677D01*
X181723D01*
Y133477D01*
D02*
G37*
G36*
X182459Y90669D02*
X181072D01*
Y91869D01*
X182459D01*
Y90669D01*
D02*
G37*
G36*
X177528D02*
X176141D01*
Y91869D01*
X177528D01*
Y90669D01*
D02*
G37*
G36*
X197268Y62423D02*
X194177D01*
Y63623D01*
X197268D01*
X197268Y62423D01*
D02*
G37*
G36*
X187623D02*
X184532D01*
X184532Y63623D01*
X187623D01*
Y62423D01*
D02*
G37*
D10*
X132844Y36030D02*
G03*
X132844Y36030I-492J0D01*
G01*
X151181Y87506D02*
G03*
X151181Y87506I-492J0D01*
G01*
X143836Y65383D02*
G03*
X143836Y65383I-492J0D01*
G01*
X137563Y126252D02*
G03*
X137563Y126252I-492J0D01*
G01*
D11*
X173043Y125900D02*
G03*
X173043Y125900I-3543J0D01*
G01*
X188543Y125800D02*
G03*
X188543Y125800I-3543J0D01*
G01*
X194443Y71300D02*
G03*
X194443Y71300I-3543J0D01*
G01*
X25700Y10000D02*
Y30000D01*
X75700Y10000D02*
Y30000D01*
X25700Y10000D02*
X75700D01*
X65700Y19972D02*
Y30000D01*
Y19972D02*
X75700Y20000D01*
X25700Y30000D02*
X75700D01*
X104200Y10523D02*
Y6981D01*
X105971D01*
X106561Y7571D01*
Y8161D01*
Y8752D01*
X105971Y9342D01*
X104200D01*
X107742D02*
Y7571D01*
X108333Y6981D01*
X110104D01*
Y6390D01*
X109513Y5800D01*
X108923D01*
X110104Y6981D02*
Y9342D01*
X114827Y6981D02*
X116007D01*
X115417D01*
Y10523D01*
X114827D01*
X117778Y5800D02*
X118369D01*
X118959Y6390D01*
Y9342D01*
X121320Y6981D02*
X122501D01*
X121911D01*
Y10523D01*
X121320D01*
X105224Y17448D02*
Y13512D01*
X103256D01*
X102600Y14168D01*
Y15480D01*
X103256Y16136D01*
X105224D01*
X108504Y13512D02*
X107192D01*
X106536Y14168D01*
Y15480D01*
X107192Y16136D01*
X108504D01*
X109160Y15480D01*
Y14824D01*
X106536D01*
X110471Y13512D02*
X112439D01*
X113095Y14168D01*
X112439Y14824D01*
X111127D01*
X110471Y15480D01*
X111127Y16136D01*
X113095D01*
X114407Y13512D02*
X115719D01*
X115063D01*
Y16136D01*
X114407D01*
X118999Y12200D02*
X119655D01*
X120311Y12856D01*
Y16136D01*
X118343D01*
X117687Y15480D01*
Y14168D01*
X118343Y13512D01*
X120311D01*
X121623D02*
Y16136D01*
X123591D01*
X124247Y15480D01*
Y13512D01*
X67100Y4700D02*
Y7699D01*
X68599D01*
X69099Y7199D01*
Y6199D01*
X68599Y5700D01*
X67100D01*
X68100D02*
X69099Y4700D01*
X72098Y7199D02*
X71599Y7699D01*
X70599D01*
X70099Y7199D01*
Y6699D01*
X70599Y6199D01*
X71599D01*
X72098Y5700D01*
Y5200D01*
X71599Y4700D01*
X70599D01*
X70099Y5200D01*
X73098Y7699D02*
X75097D01*
X74098D01*
Y4700D01*
X57000Y7699D02*
Y4700D01*
X58499D01*
X58999Y5200D01*
Y7199D01*
X58499Y7699D01*
X57000D01*
X59999D02*
X60999D01*
X60499D01*
Y4700D01*
X59999D01*
X60999D01*
X63998Y7699D02*
X62998D01*
X62498Y7199D01*
Y5200D01*
X62998Y4700D01*
X63998D01*
X64498Y5200D01*
Y7199D01*
X63998Y7699D01*
X48799Y7199D02*
X48300Y7699D01*
X47300D01*
X46800Y7199D01*
Y5200D01*
X47300Y4700D01*
X48300D01*
X48799Y5200D01*
X49799Y7699D02*
Y4700D01*
X51798D01*
X52798Y7699D02*
Y4700D01*
Y5700D01*
X54797Y7699D01*
X53298Y6199D01*
X54797Y4700D01*
X36500Y7699D02*
X38499D01*
X37500D01*
Y4700D01*
X39499Y7699D02*
Y4700D01*
X40999D01*
X41498Y5200D01*
Y7199D01*
X40999Y7699D01*
X39499D01*
X43998D02*
X42998D01*
X42498Y7199D01*
Y5200D01*
X42998Y4700D01*
X43998D01*
X44497Y5200D01*
Y7199D01*
X43998Y7699D01*
X27100D02*
X29099D01*
X28100D01*
Y4700D01*
X30099Y7699D02*
Y4700D01*
X31599D01*
X32098Y5200D01*
Y7199D01*
X31599Y7699D01*
X30099D01*
X33098D02*
X34098D01*
X33598D01*
Y4700D01*
X33098D01*
X34098D01*
X70199Y35199D02*
X68200D01*
Y33700D01*
X69200Y34199D01*
X69700D01*
X70199Y33700D01*
Y32700D01*
X69700Y32200D01*
X68700D01*
X68200Y32700D01*
X71199Y35199D02*
Y33200D01*
X72199Y32200D01*
X73198Y33200D01*
Y35199D01*
X57000Y34799D02*
X57500Y35299D01*
X58499D01*
X58999Y34799D01*
Y34299D01*
X58499Y33799D01*
X58000D01*
X58499D01*
X58999Y33300D01*
Y32800D01*
X58499Y32300D01*
X57500D01*
X57000Y32800D01*
X59999Y32300D02*
Y32800D01*
X60499D01*
Y32300D01*
X59999D01*
X62498Y34799D02*
X62998Y35299D01*
X63998D01*
X64498Y34799D01*
Y34299D01*
X63998Y33799D01*
X63498D01*
X63998D01*
X64498Y33300D01*
Y32800D01*
X63998Y32300D01*
X62998D01*
X62498Y32800D01*
X48599Y34799D02*
X48099Y35299D01*
X47100D01*
X46600Y34799D01*
Y32800D01*
X47100Y32300D01*
X48099D01*
X48599Y32800D01*
Y33799D01*
X47600D01*
X49599Y32300D02*
Y35299D01*
X51598Y32300D01*
Y35299D01*
X52598D02*
Y32300D01*
X54098D01*
X54597Y32800D01*
Y34799D01*
X54098Y35299D01*
X52598D01*
X38300Y32300D02*
Y35299D01*
X39799D01*
X40299Y34799D01*
Y33799D01*
X39799Y33300D01*
X38300D01*
X39300D02*
X40299Y32300D01*
X41299Y35299D02*
X43298Y32300D01*
Y35299D02*
X41299Y32300D01*
X28000Y35199D02*
X29999D01*
X29000D01*
Y32200D01*
X30999Y35199D02*
X32998Y32200D01*
Y35199D02*
X30999Y32200D01*
X165402Y139226D02*
Y142374D01*
X166976D01*
X167501Y141850D01*
Y140800D01*
X166976Y140275D01*
X165402D01*
X166451D02*
X167501Y139226D01*
X170650Y141850D02*
X170125Y142374D01*
X169075D01*
X168551Y141850D01*
Y141325D01*
X169075Y140800D01*
X170125D01*
X170650Y140275D01*
Y139751D01*
X170125Y139226D01*
X169075D01*
X168551Y139751D01*
X171699Y142374D02*
X173798D01*
X172749D01*
Y139226D01*
X185128Y87274D02*
Y84126D01*
X186702D01*
X187227Y84650D01*
Y85175D01*
X186702Y85700D01*
X185128D01*
X186702D01*
X187227Y86225D01*
Y86750D01*
X186702Y87274D01*
X185128D01*
X189850D02*
X188801D01*
X188276Y86750D01*
Y84650D01*
X188801Y84126D01*
X189850D01*
X190375Y84650D01*
Y86750D01*
X189850Y87274D01*
X192999D02*
X191949D01*
X191425Y86750D01*
Y84650D01*
X191949Y84126D01*
X192999D01*
X193524Y84650D01*
Y86750D01*
X192999Y87274D01*
X194573D02*
X196672D01*
X195623D01*
Y84126D01*
X178240Y141850D02*
X177716Y142374D01*
X176666D01*
X176141Y141850D01*
Y141325D01*
X176666Y140800D01*
X177716D01*
X178240Y140275D01*
Y139751D01*
X177716Y139226D01*
X176666D01*
X176141Y139751D01*
X179290Y142374D02*
Y139226D01*
X180340Y140275D01*
X181389Y139226D01*
Y142374D01*
X182439D02*
X183488D01*
X182963D01*
Y139226D01*
X182439D01*
X183488D01*
X185062Y142374D02*
X187161D01*
X186112D01*
Y139226D01*
X190310Y141850D02*
X189785Y142374D01*
X188736D01*
X188211Y141850D01*
Y139751D01*
X188736Y139226D01*
X189785D01*
X190310Y139751D01*
X191360Y142374D02*
Y139226D01*
Y140800D01*
X193459D01*
Y142374D01*
Y139226D01*
D12*
X176419Y40577D02*
G03*
X176453Y40729I781J-98D01*
G01*
D13*
X153935Y67805D02*
G03*
X153935Y67805I-1181J0D01*
G01*
D14*
X126227Y31576D02*
X129011Y34359D01*
X124000Y33803D02*
X126227Y31576D01*
X117876Y39927D02*
X120659Y42711D01*
X117876Y39927D02*
X120103Y37700D01*
X109000Y46374D02*
X146026Y83400D01*
X71974D02*
X109000Y46374D01*
X71974Y83400D02*
X109000Y120426D01*
X146026Y83400D01*
X175759Y42801D02*
X180483D01*
X174381Y43391D02*
Y54809D01*
X172019D02*
X174381D01*
X172019Y43391D02*
Y54809D01*
Y43391D02*
X174381D01*
X30797Y57202D02*
Y70998D01*
X56403D01*
X56403Y57202D02*
X56403Y70998D01*
X30797Y57202D02*
X56403D01*
X31336Y48254D02*
Y53962D01*
X83428Y12147D02*
X86972D01*
X83428Y18053D02*
X86972D01*
X185507Y5480D02*
Y37479D01*
X148893Y5480D02*
Y37479D01*
X185507D01*
X148893Y5480D02*
X185507D01*
X161106Y53886D02*
X170014Y62795D01*
X147186Y67805D02*
X156095Y76714D01*
X170014Y62795D01*
X147186Y67805D02*
X161106Y53886D01*
X138741Y122911D02*
X141525Y120127D01*
X139297Y117900D02*
X141525Y120127D01*
X130389Y114559D02*
X133173Y111776D01*
X135400Y114003D01*
X30716Y125462D02*
X32684Y125462D01*
X30716Y120738D02*
X32684Y120738D01*
X193251Y22441D02*
Y27559D01*
X187149Y22441D02*
Y27559D01*
D15*
X163432Y117923D02*
X166023D01*
X163432D02*
Y133877D01*
X172977Y117923D02*
X175568D01*
Y133877D01*
X178932Y117823D02*
X181523D01*
X178932D02*
Y133777D01*
X188477Y117823D02*
X191068D01*
Y133777D01*
X194377Y79277D02*
X196968D01*
Y63323D02*
Y79277D01*
X184832D02*
X187423D01*
X184832Y63323D02*
Y79277D01*
X176441Y91569D02*
Y98469D01*
X182159Y91569D02*
Y98469D01*
X176441Y93162D02*
X182159D01*
X152026Y93252D02*
X161297Y102522D01*
X140720Y104559D02*
X152026Y93252D01*
X140720Y104559D02*
X145316Y109155D01*
X149913Y113751D01*
X161297Y102522D01*
X83113Y115943D02*
X87157Y119987D01*
X83404Y123739D02*
X88283Y118861D01*
X79361Y119696D02*
X84239Y114818D01*
X38700Y120600D02*
Y125600D01*
X64450Y125935D02*
Y131185D01*
X46150Y119610D02*
Y121185D01*
X46150Y131185D02*
X46150Y125935D01*
Y135935D02*
Y137510D01*
X64450D01*
Y121185D02*
X64450Y119610D01*
X46150Y119610D02*
X64450Y119610D01*
X64450Y137510D02*
X64450Y135935D01*
X77998Y110258D02*
X82042Y114302D01*
X78289Y118054D02*
X83167Y113176D01*
X74246Y114011D02*
X79124Y109133D01*
D16*
X181347Y98469D02*
X182159D01*
X176441D02*
X177213D01*
X161226Y101023D02*
X162640Y102437D01*
X161226Y103852D02*
X162640Y102437D01*
X79361Y119696D02*
X79907Y120242D01*
X82830Y123165D02*
X83404Y123739D01*
X74246Y114011D02*
X74792Y114557D01*
X77715Y117480D02*
X78289Y118054D01*
D17*
X138787Y54114D02*
X138815Y54087D01*
X138815Y52249D01*
X136894Y52221D02*
X136922Y52249D01*
X138815D01*
X136894Y52221D02*
X138787Y54114D01*
X132523Y54365D02*
X135724Y51163D01*
X136699Y58541D02*
X139901Y55339D01*
X132523Y54365D02*
X136643Y58485D01*
X140965Y54288D02*
X143888Y51364D01*
X143609Y49415D02*
X143888Y49694D01*
X143888Y51364D01*
X141661Y47467D02*
X143609Y49415D01*
X141382Y47188D02*
X141661Y47467D01*
X139712Y47188D02*
X141382D01*
X136789Y50112D02*
X139712Y47188D01*
X137868Y53195D02*
X138815Y52249D01*
X77386Y56485D02*
X77414Y56513D01*
X75549Y56485D02*
X77386Y56485D01*
X75521Y58406D02*
X75549Y58378D01*
Y56485D02*
Y58378D01*
X75521Y58406D02*
X77414Y56513D01*
X74463Y59575D02*
X77665Y62777D01*
X78639Y55399D02*
X81841Y58601D01*
X77665Y62777D02*
X81785Y58657D01*
X74664Y51412D02*
X77588Y54335D01*
X72716Y51691D02*
X72994Y51412D01*
X74664Y51412D01*
X70767Y53639D02*
X72716Y51691D01*
X70488Y53918D02*
X70767Y53639D01*
X70488Y53918D02*
X70488Y55588D01*
X73412Y58511D01*
X75549Y56485D02*
X76495Y57432D01*
X83286Y47687D02*
X83314Y47715D01*
X85151Y47715D01*
Y45822D02*
X85179Y45794D01*
X85151Y45822D02*
Y47715D01*
X83286Y47687D02*
X85179Y45794D01*
X83035Y41423D02*
X86237Y44625D01*
X78859Y45599D02*
X82061Y48801D01*
X78915Y45543D02*
X83035Y41423D01*
X83112Y49865D02*
X86036Y52788D01*
X87706Y52788D02*
X87985Y52509D01*
X86036Y52788D02*
X87706Y52788D01*
X87985Y52509D02*
X89933Y50561D01*
X90212Y50282D01*
Y48612D02*
Y50282D01*
X87288Y45689D02*
X90212Y48612D01*
X84205Y46768D02*
X85151Y47715D01*
D18*
X25981Y108153D02*
X27856Y100281D01*
X29730Y108153D02*
X27856Y100281D01*
X29730Y108153D02*
X31604Y100281D01*
X33479Y108153D02*
X31604Y100281D01*
X35053Y108153D02*
Y102530D01*
X35428Y101406D01*
X36178Y100656D01*
X37302Y100281D01*
X38052D01*
X39177Y100656D01*
X39926Y101406D01*
X40301Y102530D01*
Y108153D01*
X45100D02*
Y100281D01*
X42476Y108153D02*
X47724D01*
X53534D02*
X48661D01*
Y100281D01*
X53534D01*
X48661Y104405D02*
X51660D01*
D19*
X40450Y137884D02*
X42549Y135785D01*
X40450D02*
X42549Y137884D01*
X40450Y136835D02*
X42549D01*
X41500Y135785D02*
Y137884D01*
M02*
