G04*
G04 #@! TF.GenerationSoftware,Altium Limited,Altium Designer,24.0.1 (36)*
G04*
G04 Layer_Color=32768*
%FSLAX25Y25*%
%MOIN*%
G70*
G04*
G04 #@! TF.SameCoordinates,BD3E70BB-0697-4B71-9AF7-6C14A59E7EE9*
G04*
G04*
G04 #@! TF.FilePolarity,Positive*
G04*
G01*
G75*
%ADD15C,0.00600*%
%ADD115C,0.00394*%
%ADD118C,0.00197*%
%ADD119C,0.00200*%
G36*
X163968Y135841D02*
X163968Y135645D01*
X163830Y135507D01*
X163732D01*
X163634Y135507D01*
X163496Y135645D01*
Y135841D01*
X163634Y135979D01*
X163830D01*
X163968Y135841D01*
D02*
G37*
G36*
X179468Y135741D02*
X179468Y135545D01*
X179330Y135407D01*
X179232D01*
X179134Y135407D01*
X178996Y135545D01*
Y135741D01*
X179134Y135879D01*
X179330D01*
X179468Y135741D01*
D02*
G37*
G36*
X172059Y132199D02*
X166941D01*
Y135742D01*
X172059D01*
Y132199D01*
D02*
G37*
G36*
X187559Y132099D02*
X182441D01*
Y135643D01*
X187559D01*
Y132099D01*
D02*
G37*
G36*
X81595Y122397D02*
X81595D01*
X81929Y122063D01*
X81038Y121172D01*
X80732Y121478D01*
X80732Y121478D01*
X79896Y122313D01*
X80787Y123204D01*
X81595Y122397D01*
D02*
G37*
G36*
X89347Y117706D02*
X89347Y117510D01*
X89278Y117441D01*
X89209Y117372D01*
X89013Y117372D01*
X88875Y117510D01*
X88875Y117706D01*
X88944Y117775D01*
X89013Y117844D01*
X89209D01*
X89347Y117706D01*
D02*
G37*
G36*
X172059Y116058D02*
X166941D01*
Y119601D01*
X172059D01*
Y116058D01*
D02*
G37*
G36*
X187559Y115957D02*
X182441D01*
Y119501D01*
X187559D01*
Y115957D01*
D02*
G37*
G36*
X76480Y116712D02*
D01*
X76492Y116699D01*
X76508Y116684D01*
D01*
X76814Y116378D01*
X75923Y115487D01*
X75617Y115793D01*
D01*
X75597Y115813D01*
X75589Y115821D01*
D01*
X74781Y116628D01*
X75672Y117519D01*
X76480Y116712D01*
D02*
G37*
G36*
X86912Y117079D02*
D01*
X87747Y116244D01*
X86856Y115353D01*
X86049Y116161D01*
X86049Y116161D01*
X85715Y116495D01*
X86606Y117386D01*
X86912Y117079D01*
D02*
G37*
G36*
X84094Y112159D02*
X84232Y112021D01*
Y111825D01*
X84163Y111756D01*
X84094Y111687D01*
X83898D01*
X83760Y111825D01*
X83760Y112021D01*
X83829Y112090D01*
X83898Y112159D01*
X84094Y112159D01*
D02*
G37*
G36*
X81825Y111367D02*
D01*
X82632Y110559D01*
X81741Y109669D01*
X80934Y110476D01*
D01*
X80600Y110810D01*
X81491Y111701D01*
X81825Y111367D01*
D02*
G37*
G36*
X152780Y108646D02*
X150553Y106419D01*
X148047Y108924D01*
X150275Y111152D01*
X152780Y108646D01*
D02*
G37*
G36*
X159005Y102760D02*
X159143Y102622D01*
Y102426D01*
X159074Y102357D01*
X159005Y102288D01*
X158809D01*
X158671Y102426D01*
Y102622D01*
X158740Y102691D01*
X158809Y102760D01*
X159005Y102760D01*
D02*
G37*
G36*
X148053Y103918D02*
X145826Y101691D01*
X143320Y104197D01*
X145547Y106424D01*
X148053Y103918D01*
D02*
G37*
G36*
X158626Y102800D02*
X156399Y100573D01*
X153894Y103078D01*
X156121Y105305D01*
X158626Y102800D01*
D02*
G37*
G36*
X179930Y98799D02*
D01*
Y98326D01*
X178670Y98326D01*
X178670Y98759D01*
X178670D01*
Y99940D01*
X179930D01*
X179930Y98799D01*
D02*
G37*
G36*
X153899Y98072D02*
X151672Y95845D01*
X149166Y98351D01*
X151393Y100578D01*
X153899Y98072D01*
D02*
G37*
G36*
X179930Y91240D02*
Y90098D01*
X178670Y90098D01*
Y91279D01*
X178670D01*
X178670Y91712D01*
X179930D01*
Y91240D01*
D02*
G37*
G36*
X182095Y90196D02*
Y90000D01*
X181957Y89862D01*
X181761D01*
X181623Y90000D01*
Y90196D01*
X181761Y90334D01*
X181957D01*
X182095Y90196D01*
D02*
G37*
G36*
X193459Y77599D02*
X188341D01*
Y81142D01*
X193459D01*
Y77599D01*
D02*
G37*
G36*
Y61458D02*
X188341D01*
Y65001D01*
X193459D01*
Y61458D01*
D02*
G37*
G36*
X196904Y61555D02*
Y61359D01*
X196766Y61221D01*
X196570D01*
X196432Y61359D01*
X196432Y61555D01*
X196570Y61693D01*
X196668D01*
X196766Y61693D01*
X196904Y61555D01*
D02*
G37*
G36*
X79232Y57925D02*
X78397Y57089D01*
X76170Y59316D01*
X77005Y60152D01*
X79232Y57925D01*
D02*
G37*
G36*
X74964Y53618D02*
X74964Y53618D01*
D01*
X74964Y53618D01*
D02*
G37*
G36*
X75633Y54286D02*
X74964Y53618D01*
X74964D01*
X74964D01*
X75029Y53548D01*
X75025Y53358D01*
X74890Y53224D01*
X74700Y53220D01*
X74631Y53284D01*
X74566Y53354D01*
X74570Y53544D01*
X74637Y53611D01*
X72570Y55678D01*
X73405Y56513D01*
X75633Y54286D01*
D02*
G37*
G36*
X138211Y55097D02*
X135984Y52870D01*
X135148Y53705D01*
X137375Y55932D01*
X138211Y55097D01*
D02*
G37*
G36*
X141682Y51664D02*
X141682D01*
Y51664D01*
D01*
X141752Y51729D01*
X141942Y51725D01*
X142076Y51590D01*
X142080Y51400D01*
X142016Y51331D01*
X141946Y51266D01*
X141756Y51270D01*
X141689Y51337D01*
X139622Y49270D01*
X138787Y50105D01*
X141014Y52333D01*
X141682Y51664D01*
D02*
G37*
G36*
X86070Y50916D02*
X86134Y50846D01*
X86130Y50656D01*
X86063Y50589D01*
X88130Y48522D01*
X87295Y47687D01*
X85067Y49914D01*
X85736Y50582D01*
Y50582D01*
X85736Y50582D01*
Y50582D01*
D01*
X85671Y50652D01*
X85675Y50842D01*
X85810Y50976D01*
X86000Y50980D01*
X86070Y50916D01*
D02*
G37*
G36*
X84530Y44883D02*
X83695Y44048D01*
X81468Y46275D01*
X82303Y47111D01*
X84530Y44883D01*
D02*
G37*
G36*
X75936Y29941D02*
X75936Y29843D01*
X75936Y29745D01*
X75798Y29607D01*
X75602Y29606D01*
X75464Y29745D01*
X75464Y29842D01*
X75464Y29940D01*
X75602Y30079D01*
X75798Y30079D01*
X75936Y29941D01*
D02*
G37*
G36*
X89665Y28780D02*
X89803Y28641D01*
X89803Y28543D01*
X89803Y28446D01*
X89665Y28307D01*
X89469Y28307D01*
X89331Y28446D01*
X89331Y28544D01*
X89331Y28641D01*
X89469Y28780D01*
X89665Y28780D01*
D02*
G37*
G36*
X71960Y23740D02*
X69440D01*
Y26260D01*
X71960D01*
Y23740D01*
D02*
G37*
G36*
X61960D02*
X59440Y23740D01*
Y26260D01*
X61960D01*
Y23740D01*
D02*
G37*
G36*
X51960D02*
X49440D01*
Y26260D01*
X51960D01*
Y23740D01*
D02*
G37*
G36*
X41960Y23740D02*
X39440Y23740D01*
Y26260D01*
X41960D01*
Y23740D01*
D02*
G37*
G36*
X31960Y23740D02*
X29440D01*
Y26260D01*
X31960D01*
Y23740D01*
D02*
G37*
G36*
X126496Y23031D02*
X123976D01*
Y24213D01*
X126496D01*
Y23031D01*
D02*
G37*
G36*
X116496D02*
X113976D01*
Y24213D01*
X116496D01*
Y23031D01*
D02*
G37*
G36*
X106496D02*
X103976D01*
Y24213D01*
X106496D01*
Y23031D01*
D02*
G37*
G36*
X96496D02*
X93976D01*
Y24213D01*
X96496D01*
Y23031D01*
D02*
G37*
G36*
X71960Y13740D02*
X69440D01*
Y16260D01*
X71960D01*
Y13740D01*
D02*
G37*
G36*
X61960D02*
X59440D01*
Y16260D01*
X61960Y16260D01*
Y13740D01*
D02*
G37*
G36*
X51960D02*
X49440D01*
Y16260D01*
X51960D01*
Y13740D01*
D02*
G37*
G36*
X41960Y16260D02*
Y13740D01*
X39440D01*
Y16260D01*
X41960Y16260D01*
D02*
G37*
G36*
X31960Y13740D02*
X29440D01*
Y16260D01*
X31960D01*
Y13740D01*
D02*
G37*
D15*
X38550Y117142D02*
X45650D01*
X64950D01*
X45650Y139979D02*
X64950Y139979D01*
X38550Y139979D02*
X45650D01*
X38550D02*
X38550Y117142D01*
X64950D02*
X72050D01*
Y139979D01*
X64950Y139979D02*
X72050Y139979D01*
D115*
X97347Y134953D02*
X99853Y132447D01*
X97347D02*
X99853Y134953D01*
X90547Y128153D02*
X93053Y125647D01*
X90547Y125647D02*
X93053Y128153D01*
X129308Y45992D02*
X132092Y43208D01*
X129308Y43208D02*
X132092Y45992D01*
X122608Y36308D02*
X125392Y39092D01*
X122608D02*
X125392Y36308D01*
X92408Y37108D02*
X95192Y39892D01*
X92408D02*
X95192Y37108D01*
X85200Y13131D02*
Y17068D01*
X83232Y15100D02*
X87169D01*
X185300Y92700D02*
Y96243D01*
X183528Y94472D02*
X187072D01*
X157208Y66692D02*
X159992Y63908D01*
X157208Y63908D02*
X159992Y66692D01*
X134008Y119292D02*
X136792Y116508D01*
X134008D02*
X136792Y119292D01*
X165708Y80408D02*
X168492Y83192D01*
X165708Y83192D02*
X168492Y80408D01*
X157705Y92805D02*
X160210Y95310D01*
X157705D02*
X160210Y92805D01*
X161235Y105481D02*
X164019Y108265D01*
X161235Y108265D02*
X164019Y105481D01*
X152781Y113935D02*
X155565Y116719D01*
X152781Y116719D02*
X155565Y113935D01*
X93847Y128947D02*
X96353Y131453D01*
X93847D02*
X96353Y128947D01*
X86942Y124858D02*
X89726Y122074D01*
X86942Y122074D02*
X89726Y124858D01*
X72628Y128400D02*
X76172D01*
X74400Y126628D02*
Y130172D01*
X31700Y121132D02*
Y125068D01*
X29732Y123100D02*
X33669Y123100D01*
X32828Y132872D02*
X36372D01*
X34600Y134643D02*
X34600Y131100D01*
X27028Y132886D02*
X30572D01*
X28800Y131114D02*
Y134658D01*
X49950Y43132D02*
X49950Y47069D01*
X47981Y45100D02*
X51918D01*
X49950Y41668D02*
X49950Y37732D01*
X47981Y39700D02*
X51918D01*
X37300Y37732D02*
Y41668D01*
X35331Y39700D02*
X39268D01*
X37300Y43132D02*
Y47069D01*
X35331Y45100D02*
X39268D01*
X145500Y24931D02*
Y28868D01*
X143532Y26900D02*
X147468D01*
X188232Y25000D02*
X192168D01*
X190200Y23031D02*
Y26969D01*
X173805Y74995D02*
X176310Y72490D01*
X173805D02*
X176310Y74995D01*
X161547Y88947D02*
X164053Y91453D01*
X161547D02*
X164053Y88947D01*
X169708Y87192D02*
X172492Y84408D01*
X169708Y84408D02*
X172492Y87192D01*
X140835Y112419D02*
X143619Y109635D01*
X140835D02*
X143619Y112419D01*
X142747Y127147D02*
X145253Y129653D01*
X142747D02*
X145253Y127147D01*
X87908Y44592D02*
X90692Y41808D01*
X87908D02*
X90692Y44592D01*
X107328Y33400D02*
X110872D01*
X109100Y31628D02*
Y35172D01*
X132947Y49553D02*
X135453Y47047D01*
X132947D02*
X135453Y49553D01*
X79347Y50447D02*
X81853Y52953D01*
X79347D02*
X81853Y50447D01*
X70247Y59847D02*
X72753Y62353D01*
X70247D02*
X72753Y59847D01*
X141608Y55208D02*
X144392Y57992D01*
X141608Y57992D02*
X144392Y55208D01*
X101508Y136308D02*
X104292Y139092D01*
X101508Y139092D02*
X104292Y136308D01*
X62381Y96914D02*
X64886Y99419D01*
X62381D02*
X64886Y96914D01*
X72911Y110389D02*
X75695Y107605D01*
X72911Y107605D02*
X75695Y110389D01*
X65881Y100514D02*
X68387Y103019D01*
X65881D02*
X68386Y100514D01*
X69381Y104014D02*
X71886Y106519D01*
X69381D02*
X71886Y104014D01*
X138608Y133792D02*
X141392Y131008D01*
X138608D02*
X141392Y133792D01*
X146747Y123147D02*
X149253Y125653D01*
X146747D02*
X149253Y123147D01*
X116681Y133781D02*
X119465Y136565D01*
X116681D02*
X119465Y133781D01*
X113108Y137408D02*
X115892Y140192D01*
X113108D02*
X115892Y137408D01*
X120181Y130281D02*
X122965Y133065D01*
X120181D02*
X122965Y130281D01*
X127208Y126092D02*
X129992Y123308D01*
X127208D02*
X129992Y126092D01*
X123708Y126808D02*
X126492Y129592D01*
X123708D02*
X126492Y126808D01*
X57508Y92008D02*
X60292Y94792D01*
X57508Y94792D02*
X60292Y92008D01*
X53808Y88208D02*
X56592Y90992D01*
X53808Y90992D02*
X56592Y88208D01*
D118*
X100688Y127715D02*
X104585Y131612D01*
X92615Y135788D02*
X96512Y139685D01*
X92615Y135788D02*
X100688Y127715D01*
X96512Y139685D02*
X104585Y131612D01*
X93888Y120915D02*
X97785Y124812D01*
X85815Y128988D02*
X89712Y132885D01*
X85815Y128988D02*
X93888Y120915D01*
X89712Y132885D02*
X97785Y124812D01*
X132788Y38336D02*
X136964Y42512D01*
X124436Y46688D02*
X128612Y50864D01*
X124436Y46688D02*
X132788Y38336D01*
X128612Y50864D02*
X136964Y42512D01*
X124487Y47931D02*
X134231Y38187D01*
X113769Y37213D02*
X123513Y27469D01*
X134231Y38187D01*
X113769Y37213D02*
X124487Y47931D01*
X109000Y34821D02*
X157579Y83400D01*
X60421D02*
X109000Y34821D01*
X60421Y83400D02*
X109000Y131979D01*
X157579Y83400D01*
X181468Y42112D02*
Y56088D01*
X164932D02*
X181468D01*
X164932Y42112D02*
Y56088D01*
Y42112D02*
X181468D01*
X29407Y47269D02*
Y80931D01*
X57793Y80931D01*
Y47269D02*
Y80931D01*
X29407Y47269D02*
X57793D01*
X87536Y36412D02*
X91712Y32236D01*
X95888Y44764D02*
X100064Y40588D01*
X87536Y36412D02*
X95888Y44764D01*
X91712Y32236D02*
X100064Y40588D01*
X76342Y10769D02*
X94058D01*
X76342Y19431D02*
X94058D01*
Y10769D02*
Y19431D01*
X76342Y10769D02*
Y19431D01*
X182544Y88763D02*
X188056D01*
X182544Y100180D02*
X188056D01*
X182544Y88763D02*
Y100180D01*
X188056Y88763D02*
Y100180D01*
X155955Y47344D02*
X176556Y67945D01*
X140644Y62655D02*
X161245Y83256D01*
X176556Y67945D01*
X140644Y62655D02*
X155955Y47344D01*
X125169Y118387D02*
X134913Y128131D01*
X135887Y107669D02*
X145631Y117413D01*
X134913Y128131D02*
X145631Y117413D01*
X125169Y118387D02*
X135887Y107669D01*
X165012Y88064D02*
X173364Y79712D01*
X160836Y83888D02*
X169188Y75536D01*
X160836Y83888D02*
X165012Y88064D01*
X169188Y75536D02*
X173364Y79712D01*
X152972Y91970D02*
X156870Y88072D01*
X161045Y100043D02*
X164943Y96145D01*
X152972Y91970D02*
X161045Y100043D01*
X156870Y88072D02*
X164943Y96145D01*
X156363Y108961D02*
X164715Y100609D01*
X160539Y113137D02*
X168891Y104785D01*
X164715Y100609D02*
X168891Y104785D01*
X156363Y108961D02*
X160539Y113137D01*
X147909Y117415D02*
X156261Y109063D01*
X152085Y121591D02*
X160437Y113239D01*
X156261Y109063D02*
X160437Y113239D01*
X147909Y117415D02*
X152085Y121591D01*
X93012Y136185D02*
X101085Y128112D01*
X89115Y132288D02*
X97188Y124215D01*
X89115Y132288D02*
X93012Y136185D01*
X97188Y124215D02*
X101085Y128112D01*
X82070Y125554D02*
X86246Y129730D01*
X90422Y117203D02*
X94597Y121378D01*
X86246Y129730D02*
X94597Y121378D01*
X82070Y125554D02*
X90422Y117203D01*
X71644Y122691D02*
X71644Y134109D01*
X77156Y134109D02*
X77156Y122691D01*
X71644Y122691D02*
X77156Y122691D01*
X71644Y134109D02*
X77156Y134109D01*
X25007Y126840D02*
X38393D01*
X25007Y119360D02*
X38393Y119360D01*
X25007Y126840D02*
X25007Y119360D01*
X38393Y119360D02*
Y126840D01*
X37356Y127163D02*
X37356Y138580D01*
X31844Y127163D02*
X31844Y138580D01*
X37356D01*
X31844Y127163D02*
X37356D01*
X31556Y127177D02*
Y138594D01*
X26044Y127177D02*
Y138594D01*
X31556D01*
X26044Y127177D02*
X31556D01*
X44044Y48053D02*
X55855D01*
X44044Y42147D02*
X55855D01*
X44044D02*
X44044Y48053D01*
X55855Y42147D02*
Y48053D01*
X44044Y42653D02*
X55855D01*
X44044Y36747D02*
X55855D01*
X44044D02*
Y42653D01*
X55855Y36747D02*
Y42653D01*
X31394Y36747D02*
X43205D01*
X31394Y42653D02*
X43205D01*
Y36747D02*
Y42653D01*
X31394Y36747D02*
Y42653D01*
Y42147D02*
X43205D01*
X31394Y48053D02*
X43205D01*
X43205Y42147D02*
X43205Y48053D01*
X31394Y42147D02*
X31394Y48053D01*
X142547Y20994D02*
X148453D01*
X142547Y32805D02*
X148453Y32805D01*
X142547Y20994D02*
Y32805D01*
X148453Y20994D02*
Y32805D01*
X194728Y15945D02*
Y34055D01*
X185672Y15945D02*
Y34055D01*
X194728D01*
X185672Y15945D02*
X194728D01*
X177145Y67757D02*
X181043Y71655D01*
X169072Y75830D02*
X172970Y79728D01*
X169072Y75830D02*
X177145Y67757D01*
X172970Y79728D02*
X181043Y71655D01*
X156815Y88112D02*
X160712Y84215D01*
X164888Y96185D02*
X168785Y92288D01*
X156815Y88112D02*
X164888Y96185D01*
X160712Y84215D02*
X168785Y92288D01*
X173188Y79536D02*
X177364Y83712D01*
X164836Y87888D02*
X169012Y92064D01*
X164836Y87888D02*
X173188Y79536D01*
X169012Y92064D02*
X177364Y83712D01*
X135963Y108939D02*
X144315Y117291D01*
X140139Y104763D02*
X148491Y113115D01*
X135963Y108939D02*
X140139Y104763D01*
X144315Y117291D02*
X148491Y113115D01*
X146088Y134385D02*
X149985Y130488D01*
X138015Y126312D02*
X141912Y122415D01*
X149985Y130488D01*
X138015Y126312D02*
X146088Y134385D01*
X83036Y41112D02*
X91388Y49464D01*
X87212Y36936D02*
X95564Y45288D01*
X83036Y41112D02*
X87212Y36936D01*
X91388Y49464D02*
X95564Y45288D01*
X114809Y30644D02*
Y36156D01*
X103391Y30644D02*
Y36156D01*
Y30644D02*
X114809D01*
X103391Y36156D02*
X114809D01*
X136288Y42315D02*
X140185Y46212D01*
X128215Y50388D02*
X132112Y54285D01*
X128215Y50388D02*
X136288Y42315D01*
X132112Y54285D02*
X140185Y46212D01*
X82688Y57685D02*
X86585Y53788D01*
X74615Y49612D02*
X78512Y45715D01*
X86585Y53788D01*
X74615Y49612D02*
X82688Y57685D01*
X65515Y59012D02*
X69412Y55115D01*
X73588Y67085D02*
X77485Y63188D01*
X65515Y59012D02*
X73588Y67085D01*
X69412Y55115D02*
X77485Y63188D01*
X136736Y58688D02*
X145088Y50336D01*
X140912Y62864D02*
X149264Y54512D01*
X145088Y50336D02*
X149264Y54512D01*
X136736Y58688D02*
X140912Y62864D01*
X96636Y139788D02*
X104988Y131436D01*
X100812Y143964D02*
X109164Y135612D01*
X104988Y131436D02*
X109164Y135612D01*
X96636Y139788D02*
X100812Y143964D01*
X61546Y104152D02*
X69619Y96078D01*
X57648Y100254D02*
X65722Y92181D01*
X57648Y100254D02*
X61546Y104152D01*
X65722Y92181D02*
X69619Y96078D01*
X68040Y111085D02*
X72215Y115260D01*
X76391Y102733D02*
X80567Y106909D01*
X72215Y115260D02*
X80567Y106909D01*
X68040Y111085D02*
X76391Y102733D01*
X65046Y107752D02*
X73119Y99678D01*
X61148Y103854D02*
X69222Y95781D01*
X61148Y103854D02*
X65046Y107752D01*
X69222Y95781D02*
X73119Y99678D01*
X68546Y111252D02*
X76619Y103178D01*
X64648Y107354D02*
X72722Y99281D01*
X64648Y107354D02*
X68546Y111252D01*
X72722Y99281D02*
X76619Y103178D01*
X133736Y130312D02*
X142088Y138664D01*
X137912Y126136D02*
X146264Y134488D01*
X133736Y130312D02*
X137912Y126136D01*
X142088Y138664D02*
X146264Y134488D01*
X142015Y122312D02*
X145912Y118415D01*
X150088Y130385D02*
X153985Y126488D01*
X142015Y122312D02*
X150088Y130385D01*
X145912Y118415D02*
X153985Y126488D01*
X120161Y141437D02*
X124337Y137261D01*
X111809Y133085D02*
X115985Y128909D01*
X124337Y137261D01*
X111809Y133085D02*
X120161Y141437D01*
X116588Y145064D02*
X120764Y140888D01*
X108236Y136712D02*
X112412Y132536D01*
X120764Y140888D01*
X108236Y136712D02*
X116588Y145064D01*
X123661Y137937D02*
X127837Y133761D01*
X115309Y129585D02*
X119485Y125409D01*
X127837Y133761D01*
X115309Y129585D02*
X123661Y137937D01*
X122336Y122612D02*
X130688Y130964D01*
X126512Y118436D02*
X134864Y126788D01*
X122336Y122612D02*
X126512Y118436D01*
X130688Y130964D02*
X134864Y126788D01*
X127188Y134464D02*
X131364Y130288D01*
X118836Y126112D02*
X123012Y121936D01*
X131364Y130288D01*
X118836Y126112D02*
X127188Y134464D01*
X56812Y99664D02*
X65164Y91312D01*
X52636Y95488D02*
X60988Y87136D01*
X52636Y95488D02*
X56812Y99664D01*
X60988Y87136D02*
X65164Y91312D01*
X48936Y91688D02*
X57288Y83336D01*
X53112Y95864D02*
X61464Y87512D01*
X57288Y83336D02*
X61464Y87512D01*
X48936Y91688D02*
X53112Y95864D01*
D119*
X163732Y118223D02*
Y133577D01*
Y118223D02*
X175268D01*
Y133577D01*
X163732D02*
X175268D01*
X179232Y118123D02*
Y133477D01*
Y118123D02*
X190768D01*
Y133477D01*
X179232D02*
X190768D01*
X196668Y63623D02*
Y78977D01*
X185132D02*
X196668D01*
X185132Y63623D02*
Y78977D01*
Y63623D02*
X196668D01*
X25700Y29842D02*
X75700D01*
X25700Y10158D02*
Y29842D01*
Y10158D02*
X75700D01*
Y29842D01*
X176741Y98365D02*
X181859D01*
Y91673D02*
Y98365D01*
X176741Y91673D02*
X181859D01*
X176741D02*
Y98365D01*
X151947Y95564D02*
X158907Y102524D01*
X143039Y104472D02*
X151947Y95564D01*
X143039Y104472D02*
X149999Y111432D01*
X158907Y102524D01*
X79646Y119835D02*
X84378Y115103D01*
X87997Y118722D01*
X83265Y123454D02*
X87997Y118722D01*
X79646Y119835D02*
X83265Y123454D01*
X89567Y18701D02*
Y28543D01*
X130905D01*
Y18701D02*
Y28543D01*
X89567Y18701D02*
X130905D01*
X139612Y49261D02*
X141840Y51488D01*
X135158Y53715D02*
X139612Y49261D01*
X135158Y53715D02*
X137385Y55942D01*
X141840Y51488D01*
X72561Y55688D02*
X74788Y53461D01*
X72561Y55688D02*
X77015Y60142D01*
X79242Y57915D01*
X74788Y53461D02*
X79242Y57915D01*
X85912Y50739D02*
X88139Y48512D01*
X83685Y44058D02*
X88139Y48512D01*
X81458Y46285D02*
X83685Y44058D01*
X81458Y46285D02*
X85912Y50739D01*
X74531Y114150D02*
X79263Y109418D01*
X82882Y113037D01*
X78150Y117769D02*
X82882Y113037D01*
X74531Y114150D02*
X78150Y117769D01*
M02*
