M48
;Layer_Color=9474304
;FILE_FORMAT=2:4
INCH,TZ
;TYPE=PLATED
T01F00S00C0.0120
T02F00S00C0.0160
T03F00S00C0.0200
T04F00S00C0.0240
T05F00S00C0.0300
T06F00S00C0.0315
T07F00S00C0.0320
T08F00S00C0.0433
T09F00S00C0.0472
T10F00S00C0.0787
%
T01
X13950Y3510
X13970Y4320
X14950Y4930
X16120Y4218
X17309Y6051
X17806Y5784
X18147Y5609
X18169Y5992
X18732Y6941
X18086Y7574
X17680Y7980
X17500Y8840
X17050Y9240
X17211Y9609
X18110Y10380
X19067Y9840
X19020Y9220
X19050Y5008
X20977Y5431
X20977Y4176
X15050Y8400
X14130Y8634
X13770Y8773
X14091Y7930
X15160Y9800
X15035Y10900
X15050Y13450
X15550Y12950
X15990Y12760
X10800Y13140
X11096Y14000
X10850Y11600
X11253Y11267
X11859Y10851
X11997Y10168
X10680Y10230
X10683Y9717
X10160Y10080
X9974Y10544
X9990Y10890
X10420Y10710
X9909Y9551
X9989Y9221
X9676Y8908
X9350Y8750
X8990Y8810
X8422Y8782
X8282Y8468
X8011Y8141
X7433Y8460
X6252Y8550
X5900Y7560
X5301Y5981
X6770Y5390
X7890Y3670
X8390Y3860
X10180Y3090
X10890Y4100
X11074Y5194
X11276Y5620
X10960Y5760
X11240Y6140
X11190Y6590
X11300Y7050
X11850Y7380
X12320Y7300
X12640Y7740
X13080Y7940
X13370Y7516
X13142Y7264
X12750Y6810
X12280Y8320
X11820Y8500
X12740Y9160
X13353Y8817
X13153Y9711
X9640Y9810
X9300Y11780
X8200Y12890
X8522Y13238
X7540Y13630
X7086Y9570
X8780Y7819
X8916Y7494
X8575Y7485
X9400Y7610
X9780Y7500
X10130Y7460
X10280Y7140
X10219Y6805
X10205Y6455
X3261Y6179
X3080Y6622
X3200Y7110
X2935Y7323
X3450Y7670
X3030Y8240
X3280Y8570
X3080Y5720
X3051Y5111
T02
X13500Y1170
X14280Y1560
X20410Y7650
X20400Y8570
X19820Y11410
X16970Y11170
X17750Y13620
X16110Y13930
X13030Y13520
X11140Y12770
X11390Y9661
X10904Y8320
X10172Y6008
X8020Y2930
X9050Y670
X6710Y8230
X4440Y9470
X3670Y9180
X1640Y7560
X5320Y13460
X7960Y13940
T03
X16292Y4610
X16050Y6720
X15570Y7477
X18498Y6592
X18670Y4750
X19210Y4620
X8073Y11562
X800Y11040
T04
X19730Y2460
X18987Y5688
X4380Y5800
T05
X5860Y5090
X5390Y7780
T06
X20472Y3504
X1575
T07
X13689Y2529
X19020Y2500
T08
X3070Y1500
Y2500
X4070
Y1500
X5070Y1500
Y2500
X6070Y2500
Y1500
X7070
Y2500
X9524Y2362
X10524
X11524
X12524
T09
X20472Y11457
X1575
T10
X20472Y1575
Y13386
X1575
Y1575
M30
