G04*
G04 #@! TF.GenerationSoftware,Altium Limited,Altium Designer,24.0.1 (36)*
G04*
G04 Layer_Color=8388736*
%FSLAX25Y25*%
%MOIN*%
G70*
G04*
G04 #@! TF.SameCoordinates,BD3E70BB-0697-4B71-9AF7-6C14A59E7EE9*
G04*
G04*
G04 #@! TF.FilePolarity,Negative*
G04*
G01*
G75*
%ADD42R,0.06300X0.02200*%
%ADD47C,0.08000*%
G04:AMPARAMS|DCode=48|XSize=39.43mil|YSize=37.47mil|CornerRadius=0mil|HoleSize=0mil|Usage=FLASHONLY|Rotation=225.000|XOffset=0mil|YOffset=0mil|HoleType=Round|Shape=Rectangle|*
%AMROTATEDRECTD48*
4,1,4,0.00070,0.02719,0.02719,0.00070,-0.00070,-0.02719,-0.02719,-0.00070,0.00070,0.02719,0.0*
%
%ADD48ROTATEDRECTD48*%

G04:AMPARAMS|DCode=49|XSize=43.37mil|YSize=39.43mil|CornerRadius=0mil|HoleSize=0mil|Usage=FLASHONLY|Rotation=225.000|XOffset=0mil|YOffset=0mil|HoleType=Round|Shape=Rectangle|*
%AMROTATEDRECTD49*
4,1,4,0.00139,0.02928,0.02928,0.00139,-0.00139,-0.02928,-0.02928,-0.00139,0.00139,0.02928,0.0*
%
%ADD49ROTATEDRECTD49*%

G04:AMPARAMS|DCode=50|XSize=27.62mil|YSize=43.37mil|CornerRadius=0mil|HoleSize=0mil|Usage=FLASHONLY|Rotation=315.000|XOffset=0mil|YOffset=0mil|HoleType=Round|Shape=Rectangle|*
%AMROTATEDRECTD50*
4,1,4,-0.02510,-0.00557,0.00557,0.02510,0.02510,0.00557,-0.00557,-0.02510,-0.02510,-0.00557,0.0*
%
%ADD50ROTATEDRECTD50*%

G04:AMPARAMS|DCode=51|XSize=62.07mil|YSize=15.81mil|CornerRadius=0mil|HoleSize=0mil|Usage=FLASHONLY|Rotation=225.000|XOffset=0mil|YOffset=0mil|HoleType=Round|Shape=Rectangle|*
%AMROTATEDRECTD51*
4,1,4,0.01636,0.02753,0.02753,0.01636,-0.01636,-0.02753,-0.02753,-0.01636,0.01636,0.02753,0.0*
%
%ADD51ROTATEDRECTD51*%

G04:AMPARAMS|DCode=52|XSize=62.07mil|YSize=15.81mil|CornerRadius=0mil|HoleSize=0mil|Usage=FLASHONLY|Rotation=315.000|XOffset=0mil|YOffset=0mil|HoleType=Round|Shape=Rectangle|*
%AMROTATEDRECTD52*
4,1,4,-0.02753,0.01636,-0.01636,0.02753,0.02753,-0.01636,0.01636,-0.02753,-0.02753,0.01636,0.0*
%
%ADD52ROTATEDRECTD52*%

%ADD53R,0.05754X0.05243*%
%ADD54R,0.05124X0.02762*%
%ADD55R,0.04140X0.06109*%
%ADD56R,0.13195X0.06109*%
G04:AMPARAMS|DCode=57|XSize=43.37mil|YSize=39.43mil|CornerRadius=0mil|HoleSize=0mil|Usage=FLASHONLY|Rotation=135.000|XOffset=0mil|YOffset=0mil|HoleType=Round|Shape=Rectangle|*
%AMROTATEDRECTD57*
4,1,4,0.02928,-0.00139,0.00139,-0.02928,-0.02928,0.00139,-0.00139,0.02928,0.02928,-0.00139,0.0*
%
%ADD57ROTATEDRECTD57*%

%ADD58R,0.04928X0.07093*%
%ADD59R,0.03353X0.04337*%
%ADD60R,0.03943X0.03747*%
%ADD61C,0.01575*%
%ADD62R,0.05721X0.12099*%
%ADD63R,0.04934X0.07021*%
G04:AMPARAMS|DCode=64|XSize=27.62mil|YSize=61.09mil|CornerRadius=0mil|HoleSize=0mil|Usage=FLASHONLY|Rotation=135.000|XOffset=0mil|YOffset=0mil|HoleType=Round|Shape=Round|*
%AMOVALD64*
21,1,0.03347,0.02762,0.00000,0.00000,225.0*
1,1,0.02762,0.01183,0.01183*
1,1,0.02762,-0.01183,-0.01183*
%
%ADD64OVALD64*%

G04:AMPARAMS|DCode=65|XSize=27.62mil|YSize=43.37mil|CornerRadius=0mil|HoleSize=0mil|Usage=FLASHONLY|Rotation=45.000|XOffset=0mil|YOffset=0mil|HoleType=Round|Shape=Rectangle|*
%AMROTATEDRECTD65*
4,1,4,0.00557,-0.02510,-0.02510,0.00557,-0.00557,0.02510,0.02510,-0.00557,0.00557,-0.02510,0.0*
%
%ADD65ROTATEDRECTD65*%

G04:AMPARAMS|DCode=66|XSize=59.12mil|YSize=51.24mil|CornerRadius=0mil|HoleSize=0mil|Usage=FLASHONLY|Rotation=135.000|XOffset=0mil|YOffset=0mil|HoleType=Round|Shape=Rectangle|*
%AMROTATEDRECTD66*
4,1,4,0.03902,-0.00278,0.00278,-0.03902,-0.03902,0.00278,-0.00278,0.03902,0.03902,-0.00278,0.0*
%
%ADD66ROTATEDRECTD66*%

G04:AMPARAMS|DCode=67|XSize=39.43mil|YSize=37.47mil|CornerRadius=0mil|HoleSize=0mil|Usage=FLASHONLY|Rotation=135.000|XOffset=0mil|YOffset=0mil|HoleType=Round|Shape=Rectangle|*
%AMROTATEDRECTD67*
4,1,4,0.02719,-0.00070,0.00070,-0.02719,-0.02719,0.00070,-0.00070,0.02719,0.02719,-0.00070,0.0*
%
%ADD67ROTATEDRECTD67*%

G04:AMPARAMS|DCode=68|XSize=43.37mil|YSize=33.53mil|CornerRadius=0mil|HoleSize=0mil|Usage=FLASHONLY|Rotation=135.000|XOffset=0mil|YOffset=0mil|HoleType=Round|Shape=Rectangle|*
%AMROTATEDRECTD68*
4,1,4,0.02719,-0.00348,0.00348,-0.02719,-0.02719,0.00348,-0.00348,0.02719,0.02719,-0.00348,0.0*
%
%ADD68ROTATEDRECTD68*%

%ADD69R,0.03550X0.05912*%
%ADD70R,0.03943X0.04337*%
%ADD71R,0.04337X0.03943*%
%ADD72R,0.07290X0.04337*%
%ADD73R,0.03747X0.03943*%
%ADD74C,0.12998*%
%ADD75C,0.03600*%
%ADD76C,0.02800*%
%ADD77C,0.04400*%
%ADD78C,0.05200*%
%ADD79C,0.06400*%
%ADD80C,0.05124*%
%ADD81C,0.03550*%
D42*
X67900Y133560D02*
D03*
X67900Y123560D02*
D03*
X42700Y123560D02*
D03*
Y133560D02*
D03*
D47*
X0Y137795D02*
X11811Y149606D01*
X0Y11811D02*
Y137795D01*
Y11811D02*
X11811Y0D01*
X208661D01*
X220472Y11811D01*
Y137795D01*
X208661Y149606D02*
X220472Y137795D01*
X11811Y149606D02*
X208661D01*
D48*
X100758Y131543D02*
D03*
X96443Y135857D02*
D03*
X93958Y124742D02*
D03*
X89643Y129058D02*
D03*
X92943Y132358D02*
D03*
X97258Y128042D02*
D03*
X177215Y71585D02*
D03*
X172900Y75900D02*
D03*
X136357Y46143D02*
D03*
X132043Y50458D02*
D03*
X61476Y100324D02*
D03*
X65791Y96009D02*
D03*
X64976Y103924D02*
D03*
X69291Y99609D02*
D03*
X68476Y107424D02*
D03*
X72791Y103109D02*
D03*
D49*
X132927Y42373D02*
D03*
X128473Y46827D02*
D03*
X164873Y84027D02*
D03*
X169327Y79573D02*
D03*
X164854Y104646D02*
D03*
X160400Y109100D02*
D03*
X156400Y113100D02*
D03*
X151946Y117554D02*
D03*
X86107Y125693D02*
D03*
X90561Y121239D02*
D03*
X173327Y83573D02*
D03*
X168873Y88027D02*
D03*
X145227Y54373D02*
D03*
X140773Y58827D02*
D03*
X105127Y135473D02*
D03*
X100673Y139927D02*
D03*
X72076Y111224D02*
D03*
X76530Y106770D02*
D03*
X56673Y95627D02*
D03*
X61127Y91173D02*
D03*
X57427Y87373D02*
D03*
X52973Y91827D02*
D03*
D50*
X129985Y38396D02*
D03*
X124696Y43685D02*
D03*
X120659Y34359D02*
D03*
D51*
X147245Y88238D02*
D03*
X145853Y89630D02*
D03*
X144461Y91022D02*
D03*
X143069Y92414D02*
D03*
X141677Y93806D02*
D03*
X140285Y95198D02*
D03*
X138893Y96590D02*
D03*
X137501Y97982D02*
D03*
X136109Y99374D02*
D03*
X134718Y100766D02*
D03*
X133326Y102158D02*
D03*
X131934Y103550D02*
D03*
X130542Y104942D02*
D03*
X129150Y106334D02*
D03*
X127758Y107726D02*
D03*
X126366Y109117D02*
D03*
X124974Y110510D02*
D03*
X123582Y111901D02*
D03*
X122190Y113293D02*
D03*
X120798Y114685D02*
D03*
X119406Y116077D02*
D03*
X118014Y117469D02*
D03*
X116622Y118861D02*
D03*
X115230Y120253D02*
D03*
X113838Y121645D02*
D03*
X70755Y78562D02*
D03*
X72147Y77170D02*
D03*
X73539Y75778D02*
D03*
X74931Y74386D02*
D03*
X76323Y72994D02*
D03*
X77715Y71602D02*
D03*
X79107Y70210D02*
D03*
X80499Y68818D02*
D03*
X81890Y67426D02*
D03*
X83283Y66034D02*
D03*
X84674Y64642D02*
D03*
X86066Y63250D02*
D03*
X87458Y61858D02*
D03*
X88850Y60466D02*
D03*
X90242Y59074D02*
D03*
X91634Y57683D02*
D03*
X93026Y56291D02*
D03*
X94418Y54899D02*
D03*
X95810Y53507D02*
D03*
X97202Y52115D02*
D03*
X98594Y50723D02*
D03*
X99986Y49331D02*
D03*
X101378Y47939D02*
D03*
X102770Y46547D02*
D03*
X104162Y45155D02*
D03*
D52*
Y121645D02*
D03*
X102770Y120253D02*
D03*
X101378Y118861D02*
D03*
X99986Y117469D02*
D03*
X98594Y116077D02*
D03*
X97202Y114685D02*
D03*
X95810Y113293D02*
D03*
X94418Y111901D02*
D03*
X93026Y110510D02*
D03*
X91634Y109117D02*
D03*
X90242Y107726D02*
D03*
X88850Y106334D02*
D03*
X87458Y104942D02*
D03*
X86066Y103550D02*
D03*
X84674Y102158D02*
D03*
X83283Y100766D02*
D03*
X81890Y99374D02*
D03*
X80499Y97982D02*
D03*
X79107Y96590D02*
D03*
X77715Y95198D02*
D03*
X76323Y93806D02*
D03*
X74931Y92414D02*
D03*
X73539Y91022D02*
D03*
X72147Y89630D02*
D03*
X70755Y88238D02*
D03*
X113838Y45155D02*
D03*
X115230Y46547D02*
D03*
X116622Y47939D02*
D03*
X118014Y49331D02*
D03*
X119406Y50723D02*
D03*
X120798Y52115D02*
D03*
X122190Y53507D02*
D03*
X123582Y54899D02*
D03*
X124974Y56291D02*
D03*
X126366Y57683D02*
D03*
X127758Y59074D02*
D03*
X129150Y60466D02*
D03*
X130542Y61858D02*
D03*
X131934Y63250D02*
D03*
X133326Y64642D02*
D03*
X134718Y66034D02*
D03*
X136109Y67426D02*
D03*
X137501Y68818D02*
D03*
X138893Y70210D02*
D03*
X140285Y71602D02*
D03*
X141677Y72994D02*
D03*
X143069Y74386D02*
D03*
X144461Y75778D02*
D03*
X145853Y77170D02*
D03*
X147245Y78562D02*
D03*
D53*
X169500Y134502D02*
D03*
Y117298D02*
D03*
X185000Y134402D02*
D03*
Y117198D02*
D03*
X190900Y62698D02*
D03*
Y79902D02*
D03*
D54*
X168279Y45360D02*
D03*
X168279Y49100D02*
D03*
X168279Y52840D02*
D03*
X178121D02*
D03*
X178121Y49100D02*
D03*
X178121Y45360D02*
D03*
D55*
X34584Y51108D02*
D03*
X43600D02*
D03*
X52616D02*
D03*
D56*
X43600Y77092D02*
D03*
D57*
X91573Y36273D02*
D03*
X96027Y40727D02*
D03*
X140000Y108800D02*
D03*
X144454Y113254D02*
D03*
X87073Y40973D02*
D03*
X91527Y45427D02*
D03*
X137773Y130173D02*
D03*
X142227Y134627D02*
D03*
X120300Y137400D02*
D03*
X115846Y132946D02*
D03*
X116727Y141027D02*
D03*
X112273Y136573D02*
D03*
X123800Y133900D02*
D03*
X119346Y129446D02*
D03*
X126373Y122473D02*
D03*
X130827Y126927D02*
D03*
X127327Y130427D02*
D03*
X122873Y125973D02*
D03*
D58*
X90712Y15100D02*
D03*
X79688D02*
D03*
D59*
X179300Y99537D02*
D03*
Y90304D02*
D03*
D60*
X185300Y91421D02*
D03*
Y97523D02*
D03*
X74400Y125349D02*
D03*
Y131451D02*
D03*
X34600Y135923D02*
D03*
Y129821D02*
D03*
X28800Y135937D02*
D03*
Y129835D02*
D03*
D61*
X177268Y22931D02*
D03*
D62*
X167200Y12759D02*
D03*
Y30200D02*
D03*
X177200D02*
D03*
X157200D02*
D03*
D63*
Y10220D02*
D03*
X177200D02*
D03*
D64*
X171489Y67583D02*
D03*
X167954Y71118D02*
D03*
X164418Y74654D02*
D03*
X160883Y78189D02*
D03*
X156317Y52411D02*
D03*
X152782Y55946D02*
D03*
X149246Y59482D02*
D03*
X145711Y63017D02*
D03*
D65*
X134704Y123885D02*
D03*
X129415Y118596D02*
D03*
X138741Y114559D02*
D03*
D66*
X151600Y98000D02*
D03*
X145475Y104125D02*
D03*
X150347Y108997D02*
D03*
X156472Y102872D02*
D03*
D67*
X156800Y91900D02*
D03*
X161115Y96215D02*
D03*
X160643Y88042D02*
D03*
X164957Y92357D02*
D03*
X146158Y130558D02*
D03*
X141842Y126242D02*
D03*
X82758Y53857D02*
D03*
X78443Y49542D02*
D03*
X69342Y58943D02*
D03*
X73658Y63257D02*
D03*
X145843Y122242D02*
D03*
X150157Y126558D02*
D03*
D68*
X87156Y115945D02*
D03*
X80627Y122473D02*
D03*
X82041Y110259D02*
D03*
X75512Y116788D02*
D03*
D69*
X27665Y123100D02*
D03*
X35735Y123100D02*
D03*
D70*
X46800Y45100D02*
D03*
X53099Y45100D02*
D03*
X46800Y39700D02*
D03*
X53099D02*
D03*
X40450D02*
D03*
X34150D02*
D03*
X40450Y45100D02*
D03*
X34150D02*
D03*
D71*
X145500Y23750D02*
D03*
Y30050D02*
D03*
D72*
X190200Y31004D02*
D03*
Y18996D02*
D03*
D73*
X112151Y33400D02*
D03*
X106049D02*
D03*
D74*
X204724Y15748D02*
D03*
Y133858D02*
D03*
X15748D02*
D03*
Y15748D02*
D03*
D75*
X111400Y127700D02*
D03*
X204100Y76500D02*
D03*
X113900Y96615D02*
D03*
X101721Y60079D02*
D03*
X79600Y139400D02*
D03*
X177500Y136200D02*
D03*
X90500Y6700D02*
D03*
X135000Y11700D02*
D03*
X198200Y114100D02*
D03*
X169700Y111700D02*
D03*
X67100Y82300D02*
D03*
X44400Y94700D02*
D03*
X36700Y91800D02*
D03*
X161100Y139300D02*
D03*
X53200Y134600D02*
D03*
X130300Y135200D02*
D03*
X16400Y75600D02*
D03*
X204000Y85700D02*
D03*
X142800Y15600D02*
D03*
X80200Y29300D02*
D03*
X109042Y83200D02*
D03*
D76*
X108000Y131400D02*
D03*
X85222Y132378D02*
D03*
X74330Y84595D02*
D03*
X84222Y87822D02*
D03*
X70861Y95701D02*
D03*
X82819Y84677D02*
D03*
X173087Y60513D02*
D03*
X180861Y75739D02*
D03*
X187318Y69408D02*
D03*
X181691Y59917D02*
D03*
X181468Y56088D02*
D03*
X178056Y57844D02*
D03*
X190500Y50077D02*
D03*
X139500Y35100D02*
D03*
X149500Y49300D02*
D03*
X172108Y96092D02*
D03*
X170500Y92400D02*
D03*
X161200Y42177D02*
D03*
X175000Y88400D02*
D03*
X106830Y97170D02*
D03*
X102192Y68055D02*
D03*
X102800Y71400D02*
D03*
X102046Y64554D02*
D03*
X101300Y74600D02*
D03*
X97800Y75000D02*
D03*
X89161Y74938D02*
D03*
X94000Y76100D02*
D03*
X87800Y78189D02*
D03*
X85752Y74848D02*
D03*
X99086Y95513D02*
D03*
X99890Y92210D02*
D03*
X96400Y98100D02*
D03*
X96757Y89076D02*
D03*
X93500Y87500D02*
D03*
X89900Y88100D02*
D03*
X150500Y134500D02*
D03*
X139700Y43200D02*
D03*
X78900Y36700D02*
D03*
X83900Y38600D02*
D03*
X53008Y59808D02*
D03*
X67700Y53900D02*
D03*
X131530Y97111D02*
D03*
X127400Y91600D02*
D03*
X133703Y75160D02*
D03*
X131415Y72645D02*
D03*
X104200Y107100D02*
D03*
X140914Y79300D02*
D03*
X118586Y108514D02*
D03*
X119972Y101685D02*
D03*
X151600Y98000D02*
D03*
X150347Y108997D02*
D03*
X137700Y87727D02*
D03*
X133527Y88173D02*
D03*
X141298Y86343D02*
D03*
X181100Y103800D02*
D03*
X209773Y54307D02*
D03*
X159900Y127600D02*
D03*
X93000Y117800D02*
D03*
X59000Y75600D02*
D03*
X110957Y140000D02*
D03*
X112764Y56200D02*
D03*
X109600Y57600D02*
D03*
X30514Y51108D02*
D03*
X99900Y108900D02*
D03*
X99739Y105438D02*
D03*
X150500Y84000D02*
D03*
X75400Y136300D02*
D03*
X112400Y61400D02*
D03*
X127500Y68100D02*
D03*
X123200Y73000D02*
D03*
X126400Y77400D02*
D03*
X130800Y79400D02*
D03*
X62521Y85500D02*
D03*
X34500Y76700D02*
D03*
X32800Y85700D02*
D03*
X82000Y128900D02*
D03*
X101800Y30900D02*
D03*
X108900Y41000D02*
D03*
X110735Y51935D02*
D03*
X113000Y70500D02*
D03*
X111900Y65900D02*
D03*
X108500Y116000D02*
D03*
X112527Y112673D02*
D03*
X122800Y83200D02*
D03*
X118200Y85000D02*
D03*
X176800Y79800D02*
D03*
X190200Y92200D02*
D03*
X190672Y98400D02*
D03*
X155500Y129500D02*
D03*
X101600Y100800D02*
D03*
X106800Y102300D02*
D03*
X80106Y81406D02*
D03*
X118500Y73800D02*
D03*
X209773Y41756D02*
D03*
X30300Y82400D02*
D03*
X32612Y61788D02*
D03*
X32001Y71099D02*
D03*
X30797Y57202D02*
D03*
Y66218D02*
D03*
X29350Y73228D02*
D03*
D77*
X184983Y65917D02*
D03*
X162917Y46100D02*
D03*
X155700Y74772D02*
D03*
X192104Y46195D02*
D03*
X186700Y47500D02*
D03*
X160505Y67200D02*
D03*
X80728Y115615D02*
D03*
X8000Y110400D02*
D03*
D78*
X197300Y24600D02*
D03*
X189868Y56877D02*
D03*
X43800Y58000D02*
D03*
D79*
X58600Y50900D02*
D03*
X53900Y77800D02*
D03*
X190200Y25000D02*
D03*
X136894Y25290D02*
D03*
D80*
X204724Y114567D02*
D03*
X15748D02*
D03*
D81*
X204724Y35039D02*
D03*
X15748D02*
D03*
M02*
