G04*
G04 #@! TF.GenerationSoftware,Altium Limited,Altium Designer,24.0.1 (36)*
G04*
G04 Layer_Color=128*
%FSLAX25Y25*%
%MOIN*%
G70*
G04*
G04 #@! TF.SameCoordinates,BD3E70BB-0697-4B71-9AF7-6C14A59E7EE9*
G04*
G04*
G04 #@! TF.FilePolarity,Positive*
G04*
G01*
G75*
%ADD120C,0.00500*%
D120*
X200787Y15748D02*
X208661D01*
X204724Y11811D02*
Y19685D01*
X200787Y133858D02*
X208661D01*
X204724Y129921D02*
Y137795D01*
X11811Y133858D02*
X19685D01*
X15748Y129921D02*
Y137795D01*
X11811Y15748D02*
X19685D01*
X15748Y11811D02*
Y19685D01*
X28535Y15000D02*
X32865D01*
X30700Y12835D02*
Y17165D01*
X28535Y25000D02*
X32865D01*
X30700Y22835D02*
Y27165D01*
X38535Y15000D02*
X42865D01*
X40700Y12835D02*
Y17165D01*
X38535Y25000D02*
X42865D01*
X40700Y22835D02*
Y27165D01*
X48535Y15000D02*
X52865D01*
X50700Y12835D02*
Y17165D01*
X48535Y25000D02*
X52865D01*
X50700Y22835D02*
Y27165D01*
X58535Y15000D02*
X62865D01*
X60700Y12835D02*
Y17165D01*
X58535Y25000D02*
X62865D01*
X60700Y22835D02*
Y27165D01*
X68535Y15000D02*
X72865D01*
X70700Y12835D02*
Y17165D01*
X68535Y25000D02*
X72865D01*
X70700Y22835D02*
Y27165D01*
X123071Y23622D02*
X127402D01*
X125236Y21457D02*
Y25787D01*
X113071Y23622D02*
X117402D01*
X115236Y21457D02*
Y25787D01*
X103071Y23622D02*
X107402D01*
X105236Y21457D02*
Y25787D01*
X93071Y23622D02*
X97402D01*
X95236Y21457D02*
Y25787D01*
X110600Y127700D02*
X112200D01*
X111400Y126900D02*
Y128500D01*
X107400Y131400D02*
X108600D01*
X108000Y130800D02*
Y132000D01*
X84622Y132378D02*
X85822D01*
X85222Y131778D02*
Y132978D01*
X73729Y84595D02*
X74929D01*
X74330Y83995D02*
Y85195D01*
X83622Y87822D02*
X84822D01*
X84222Y87222D02*
Y88422D01*
X70261Y95701D02*
X71461D01*
X70861Y95101D02*
Y96301D01*
X82219Y84677D02*
X83419D01*
X82819Y84077D02*
Y85277D01*
X172487Y60513D02*
X173687D01*
X173087Y59913D02*
Y61113D01*
X180262Y75739D02*
X181462D01*
X180861Y75138D02*
Y76338D01*
X186718Y69408D02*
X187918D01*
X187318Y68808D02*
Y70008D01*
X183983Y65917D02*
X185983D01*
X184983Y64916D02*
Y66917D01*
X181091Y59917D02*
X182291D01*
X181691Y59317D02*
Y60517D01*
X180868Y56088D02*
X182068D01*
X181468Y55488D02*
Y56688D01*
X177456Y57844D02*
X178656D01*
X178056Y57244D02*
Y58444D01*
X189900Y50077D02*
X191100D01*
X190500Y49477D02*
Y50677D01*
X138900Y35100D02*
X140100D01*
X139500Y34500D02*
Y35700D01*
X148900Y49300D02*
X150100D01*
X149500Y48700D02*
Y49900D01*
X171508Y96092D02*
X172708D01*
X172108Y95492D02*
Y96692D01*
X169900Y92400D02*
X171100D01*
X170500Y91800D02*
Y93000D01*
X160600Y42177D02*
X161800D01*
X161200Y41577D02*
Y42777D01*
X161916Y46100D02*
X163917D01*
X162917Y45100D02*
Y47100D01*
X174400Y88400D02*
X175600D01*
X175000Y87800D02*
Y89000D01*
X154700Y74772D02*
X156700D01*
X155700Y73772D02*
Y75772D01*
X196100Y24600D02*
X198500D01*
X197300Y23400D02*
Y25800D01*
X191104Y46195D02*
X193104D01*
X192104Y45195D02*
Y47195D01*
X185700Y47500D02*
X187700D01*
X186700Y46500D02*
Y48500D01*
X159505Y67200D02*
X161505D01*
X160505Y66200D02*
Y68200D01*
X203300Y76500D02*
X204900D01*
X204100Y75700D02*
Y77300D01*
X113100Y96615D02*
X114700D01*
X113900Y95815D02*
Y97415D01*
X106230Y97170D02*
X107430D01*
X106830Y96570D02*
Y97770D01*
X101592Y68055D02*
X102792D01*
X102192Y67455D02*
Y68655D01*
X102200Y71400D02*
X103400D01*
X102800Y70800D02*
Y72000D01*
X101446Y64554D02*
X102646D01*
X102046Y63954D02*
Y65154D01*
X100700Y74600D02*
X101900D01*
X101300Y74000D02*
Y75200D01*
X97200Y75000D02*
X98400D01*
X97800Y74400D02*
Y75600D01*
X88561Y74938D02*
X89762D01*
X89161Y74339D02*
Y75538D01*
X93400Y76100D02*
X94600D01*
X94000Y75500D02*
Y76700D01*
X100921Y60079D02*
X102521D01*
X101721Y59279D02*
Y60879D01*
X87200Y78189D02*
X88400D01*
X87800Y77588D02*
Y78789D01*
X85152Y74848D02*
X86352D01*
X85752Y74248D02*
Y75448D01*
X98487Y95513D02*
X99686D01*
X99086Y94914D02*
Y96114D01*
X99290Y92210D02*
X100490D01*
X99890Y91610D02*
Y92810D01*
X95800Y98100D02*
X97000D01*
X96400Y97500D02*
Y98700D01*
X96157Y89076D02*
X97357D01*
X96757Y88476D02*
Y89676D01*
X92900Y87500D02*
X94100D01*
X93500Y86900D02*
Y88100D01*
X89300D02*
X90500D01*
X89900Y87500D02*
Y88700D01*
X149900Y134500D02*
X151100D01*
X150500Y133900D02*
Y135100D01*
X139100Y43200D02*
X140300D01*
X139700Y42600D02*
Y43800D01*
X79728Y115615D02*
X81728D01*
X80728Y114615D02*
Y116615D01*
X7000Y110400D02*
X9000D01*
X8000Y109400D02*
Y111400D01*
X188668Y56877D02*
X191068D01*
X189868Y55677D02*
Y58077D01*
X78300Y36700D02*
X79500D01*
X78900Y36100D02*
Y37300D01*
X83300Y38600D02*
X84500D01*
X83900Y38000D02*
Y39200D01*
X52408Y59808D02*
X53608D01*
X53008Y59208D02*
Y60408D01*
X67100Y53900D02*
X68300D01*
X67700Y53300D02*
Y54500D01*
X130930Y97111D02*
X132130D01*
X131530Y96511D02*
Y97711D01*
X126800Y91600D02*
X128000D01*
X127400Y91000D02*
Y92200D01*
X133103Y75160D02*
X134303D01*
X133703Y74560D02*
Y75760D01*
X130815Y72645D02*
X132015D01*
X131415Y72045D02*
Y73245D01*
X103600Y107100D02*
X104800D01*
X104200Y106500D02*
Y107700D01*
X140314Y79300D02*
X141514D01*
X140914Y78700D02*
Y79900D01*
X117986Y108514D02*
X119186D01*
X118586Y107914D02*
Y109114D01*
X119372Y101685D02*
X120572D01*
X119972Y101085D02*
Y102285D01*
X151000Y98000D02*
X152200D01*
X151600Y97400D02*
Y98600D01*
X149747Y108997D02*
X150947D01*
X150347Y108397D02*
Y109597D01*
X137100Y87727D02*
X138300D01*
X137700Y87127D02*
Y88327D01*
X132927Y88173D02*
X134127D01*
X133527Y87573D02*
Y88773D01*
X140698Y86343D02*
X141898D01*
X141298Y85743D02*
Y86944D01*
X180500Y103800D02*
X181700D01*
X181100Y103200D02*
Y104400D01*
X209173Y54307D02*
X210373D01*
X209773Y53707D02*
Y54907D01*
X42600Y58000D02*
X45000D01*
X43800Y56800D02*
Y59200D01*
X57100Y50900D02*
X60100D01*
X58600Y49400D02*
Y52400D01*
X159300Y127600D02*
X160500D01*
X159900Y127000D02*
Y128200D01*
X92400Y117800D02*
X93600D01*
X93000Y117200D02*
Y118400D01*
X78800Y139400D02*
X80400D01*
X79600Y138600D02*
Y140200D01*
X176700Y136200D02*
X178300D01*
X177500Y135400D02*
Y137000D01*
X89700Y6700D02*
X91300D01*
X90500Y5900D02*
Y7500D01*
X134200Y11700D02*
X135800D01*
X135000Y10900D02*
Y12500D01*
X197400Y114100D02*
X199000D01*
X198200Y113300D02*
Y114900D01*
X168900Y111700D02*
X170500D01*
X169700Y110900D02*
Y112500D01*
X66300Y82300D02*
X67900D01*
X67100Y81500D02*
Y83100D01*
X43600Y94700D02*
X45200D01*
X44400Y93900D02*
Y95500D01*
X35900Y91800D02*
X37500D01*
X36700Y91000D02*
Y92600D01*
X58400Y75600D02*
X59600D01*
X59000Y75000D02*
Y76200D01*
X110357Y140000D02*
X111557D01*
X110957Y139400D02*
Y140600D01*
X160300Y139300D02*
X161900D01*
X161100Y138500D02*
Y140100D01*
X112164Y56200D02*
X113364D01*
X112764Y55600D02*
Y56800D01*
X109000Y57600D02*
X110200D01*
X109600Y57000D02*
Y58200D01*
X29914Y51108D02*
X31114D01*
X30514Y50508D02*
Y51708D01*
X99300Y108900D02*
X100500D01*
X99900Y108300D02*
Y109500D01*
X99138Y105438D02*
X100338D01*
X99739Y104839D02*
Y106038D01*
X149900Y84000D02*
X151100D01*
X150500Y83400D02*
Y84600D01*
X74800Y136300D02*
X76000D01*
X75400Y135700D02*
Y136900D01*
X111800Y61400D02*
X113000D01*
X112400Y60800D02*
Y62000D01*
X126900Y68100D02*
X128100D01*
X127500Y67500D02*
Y68700D01*
X122600Y73000D02*
X123800D01*
X123200Y72400D02*
Y73600D01*
X125800Y77400D02*
X127000D01*
X126400Y76800D02*
Y78000D01*
X130200Y79400D02*
X131400D01*
X130800Y78800D02*
Y80000D01*
X61921Y85500D02*
X63121D01*
X62521Y84900D02*
Y86100D01*
X52400Y77800D02*
X55400D01*
X53900Y76300D02*
Y79300D01*
X33900Y76700D02*
X35100D01*
X34500Y76100D02*
Y77300D01*
X32200Y85700D02*
X33400D01*
X32800Y85100D02*
Y86300D01*
X188600Y25000D02*
X191800D01*
X190200Y23400D02*
Y26600D01*
X81400Y128900D02*
X82600D01*
X82000Y128300D02*
Y129500D01*
X52400Y134600D02*
X54000D01*
X53200Y133800D02*
Y135400D01*
X129500Y135200D02*
X131100D01*
X130300Y134400D02*
Y136000D01*
X15600Y75600D02*
X17200D01*
X16400Y74800D02*
Y76400D01*
X203200Y85700D02*
X204800D01*
X204000Y84900D02*
Y86500D01*
X142000Y15600D02*
X143600D01*
X142800Y14800D02*
Y16400D01*
X79400Y29300D02*
X81000D01*
X80200Y28500D02*
Y30100D01*
X108242Y83200D02*
X109842D01*
X109042Y82400D02*
Y84000D01*
X101200Y30900D02*
X102400D01*
X101800Y30300D02*
Y31500D01*
X108300Y41000D02*
X109500D01*
X108900Y40400D02*
Y41600D01*
X110135Y51935D02*
X111335D01*
X110735Y51335D02*
Y52535D01*
X112400Y70500D02*
X113600D01*
X113000Y69900D02*
Y71100D01*
X111300Y65900D02*
X112500D01*
X111900Y65300D02*
Y66500D01*
X107900Y116000D02*
X109100D01*
X108500Y115400D02*
Y116600D01*
X111927Y112673D02*
X113127D01*
X112527Y112073D02*
Y113273D01*
X122200Y83200D02*
X123400D01*
X122800Y82600D02*
Y83800D01*
X117600Y85000D02*
X118800D01*
X118200Y84400D02*
Y85600D01*
X135294Y25290D02*
X138494D01*
X136894Y23690D02*
Y26890D01*
X176200Y79800D02*
X177400D01*
X176800Y79200D02*
Y80400D01*
X189600Y92200D02*
X190800D01*
X190200Y91600D02*
Y92800D01*
X190072Y98400D02*
X191272D01*
X190672Y97800D02*
Y99000D01*
X202362Y114567D02*
X207087D01*
X204724Y112205D02*
Y116929D01*
X203150Y35039D02*
X206299D01*
X204724Y33465D02*
Y36614D01*
X154900Y129500D02*
X156100D01*
X155500Y128900D02*
Y130100D01*
X101000Y100800D02*
X102200D01*
X101600Y100200D02*
Y101400D01*
X106200Y102300D02*
X107400D01*
X106800Y101700D02*
Y102900D01*
X79506Y81406D02*
X80706D01*
X80106Y80806D02*
Y82006D01*
X117900Y73800D02*
X119100D01*
X118500Y73200D02*
Y74400D01*
X209173Y41756D02*
X210373D01*
X209773Y41156D02*
Y42356D01*
X29700Y82400D02*
X30900D01*
X30300Y81800D02*
Y83000D01*
X32012Y61788D02*
X33211D01*
X32612Y61189D02*
Y62388D01*
X31401Y71099D02*
X32601D01*
X32001Y70499D02*
Y71699D01*
X30197Y57202D02*
X31397D01*
X30797Y56602D02*
Y57802D01*
X30197Y66218D02*
X31397D01*
X30797Y65618D02*
Y66818D01*
X28750Y73228D02*
X29950D01*
X29350Y72628D02*
Y73828D01*
X14173Y35039D02*
X17323D01*
X15748Y33465D02*
Y36614D01*
X13386Y114567D02*
X18110D01*
X15748Y112205D02*
Y116929D01*
M02*
