G04*
G04 #@! TF.GenerationSoftware,Altium Limited,Altium Designer,24.0.1 (36)*
G04*
G04 Layer_Color=255*
%FSLAX25Y25*%
%MOIN*%
G70*
G04*
G04 #@! TF.SameCoordinates,BD3E70BB-0697-4B71-9AF7-6C14A59E7EE9*
G04*
G04*
G04 #@! TF.FilePolarity,Positive*
G04*
G01*
G75*
G04:AMPARAMS|DCode=20|XSize=35.43mil|YSize=33.47mil|CornerRadius=0mil|HoleSize=0mil|Usage=FLASHONLY|Rotation=225.000|XOffset=0mil|YOffset=0mil|HoleType=Round|Shape=Rectangle|*
%AMROTATEDRECTD20*
4,1,4,0.00070,0.02436,0.02436,0.00070,-0.00070,-0.02436,-0.02436,-0.00070,0.00070,0.02436,0.0*
%
%ADD20ROTATEDRECTD20*%

G04:AMPARAMS|DCode=21|XSize=39.37mil|YSize=35.43mil|CornerRadius=0mil|HoleSize=0mil|Usage=FLASHONLY|Rotation=225.000|XOffset=0mil|YOffset=0mil|HoleType=Round|Shape=Rectangle|*
%AMROTATEDRECTD21*
4,1,4,0.00139,0.02645,0.02645,0.00139,-0.00139,-0.02645,-0.02645,-0.00139,0.00139,0.02645,0.0*
%
%ADD21ROTATEDRECTD21*%

G04:AMPARAMS|DCode=22|XSize=23.62mil|YSize=39.37mil|CornerRadius=0mil|HoleSize=0mil|Usage=FLASHONLY|Rotation=315.000|XOffset=0mil|YOffset=0mil|HoleType=Round|Shape=Rectangle|*
%AMROTATEDRECTD22*
4,1,4,-0.02227,-0.00557,0.00557,0.02227,0.02227,0.00557,-0.00557,-0.02227,-0.02227,-0.00557,0.0*
%
%ADD22ROTATEDRECTD22*%

G04:AMPARAMS|DCode=23|XSize=58.07mil|YSize=11.81mil|CornerRadius=0mil|HoleSize=0mil|Usage=FLASHONLY|Rotation=225.000|XOffset=0mil|YOffset=0mil|HoleType=Round|Shape=Rectangle|*
%AMROTATEDRECTD23*
4,1,4,0.01636,0.02471,0.02471,0.01636,-0.01636,-0.02471,-0.02471,-0.01636,0.01636,0.02471,0.0*
%
%ADD23ROTATEDRECTD23*%

G04:AMPARAMS|DCode=24|XSize=58.07mil|YSize=11.81mil|CornerRadius=0mil|HoleSize=0mil|Usage=FLASHONLY|Rotation=315.000|XOffset=0mil|YOffset=0mil|HoleType=Round|Shape=Rectangle|*
%AMROTATEDRECTD24*
4,1,4,-0.02471,0.01636,-0.01636,0.02471,0.02471,-0.01636,0.01636,-0.02471,-0.02471,0.01636,0.0*
%
%ADD24ROTATEDRECTD24*%

%ADD25R,0.05354X0.04842*%
%ADD26R,0.04724X0.02362*%
%ADD27R,0.03740X0.05709*%
%ADD28R,0.12795X0.05709*%
G04:AMPARAMS|DCode=29|XSize=39.37mil|YSize=35.43mil|CornerRadius=0mil|HoleSize=0mil|Usage=FLASHONLY|Rotation=135.000|XOffset=0mil|YOffset=0mil|HoleType=Round|Shape=Rectangle|*
%AMROTATEDRECTD29*
4,1,4,0.02645,-0.00139,0.00139,-0.02645,-0.02645,0.00139,-0.00139,0.02645,0.02645,-0.00139,0.0*
%
%ADD29ROTATEDRECTD29*%

%ADD30R,0.04528X0.06693*%
%ADD31R,0.02953X0.03937*%
%ADD32R,0.03543X0.03347*%
%ADD33C,0.00787*%
%ADD34R,0.04921X0.11299*%
%ADD35R,0.04134X0.06221*%
G04:AMPARAMS|DCode=36|XSize=23.62mil|YSize=57.09mil|CornerRadius=0mil|HoleSize=0mil|Usage=FLASHONLY|Rotation=135.000|XOffset=0mil|YOffset=0mil|HoleType=Round|Shape=Round|*
%AMOVALD36*
21,1,0.03347,0.02362,0.00000,0.00000,225.0*
1,1,0.02362,0.01183,0.01183*
1,1,0.02362,-0.01183,-0.01183*
%
%ADD36OVALD36*%

G04:AMPARAMS|DCode=37|XSize=23.62mil|YSize=39.37mil|CornerRadius=0mil|HoleSize=0mil|Usage=FLASHONLY|Rotation=45.000|XOffset=0mil|YOffset=0mil|HoleType=Round|Shape=Rectangle|*
%AMROTATEDRECTD37*
4,1,4,0.00557,-0.02227,-0.02227,0.00557,-0.00557,0.02227,0.02227,-0.00557,0.00557,-0.02227,0.0*
%
%ADD37ROTATEDRECTD37*%

G04:AMPARAMS|DCode=38|XSize=55.12mil|YSize=47.24mil|CornerRadius=0mil|HoleSize=0mil|Usage=FLASHONLY|Rotation=135.000|XOffset=0mil|YOffset=0mil|HoleType=Round|Shape=Rectangle|*
%AMROTATEDRECTD38*
4,1,4,0.03619,-0.00278,0.00278,-0.03619,-0.03619,0.00278,-0.00278,0.03619,0.03619,-0.00278,0.0*
%
%ADD38ROTATEDRECTD38*%

G04:AMPARAMS|DCode=39|XSize=35.43mil|YSize=33.47mil|CornerRadius=0mil|HoleSize=0mil|Usage=FLASHONLY|Rotation=135.000|XOffset=0mil|YOffset=0mil|HoleType=Round|Shape=Rectangle|*
%AMROTATEDRECTD39*
4,1,4,0.02436,-0.00070,0.00070,-0.02436,-0.02436,0.00070,-0.00070,0.02436,0.02436,-0.00070,0.0*
%
%ADD39ROTATEDRECTD39*%

G04:AMPARAMS|DCode=40|XSize=39.37mil|YSize=29.53mil|CornerRadius=0mil|HoleSize=0mil|Usage=FLASHONLY|Rotation=135.000|XOffset=0mil|YOffset=0mil|HoleType=Round|Shape=Rectangle|*
%AMROTATEDRECTD40*
4,1,4,0.02436,-0.00348,0.00348,-0.02436,-0.02436,0.00348,-0.00348,0.02436,0.02436,-0.00348,0.0*
%
%ADD40ROTATEDRECTD40*%

%ADD41R,0.03150X0.05512*%
%ADD42R,0.06300X0.02200*%
%ADD43R,0.03543X0.03937*%
%ADD44R,0.03937X0.03543*%
%ADD45R,0.06890X0.03937*%
%ADD46R,0.03347X0.03543*%
%ADD83P,0.04454X4X270.0*%
%ADD84P,0.04454X4X180.0*%
%ADD89C,0.12598*%
%ADD90C,0.06693*%
%ADD91R,0.06693X0.06693*%
D20*
X100758Y131543D02*
D03*
X96443Y135857D02*
D03*
X93958Y124742D02*
D03*
X89643Y129058D02*
D03*
X92943Y132358D02*
D03*
X97258Y128042D02*
D03*
X177215Y71585D02*
D03*
X172900Y75900D02*
D03*
X136357Y46143D02*
D03*
X132043Y50458D02*
D03*
X61476Y100324D02*
D03*
X65791Y96009D02*
D03*
X64976Y103924D02*
D03*
X69291Y99609D02*
D03*
X68476Y107424D02*
D03*
X72791Y103109D02*
D03*
D21*
X132927Y42373D02*
D03*
X128473Y46827D02*
D03*
X164873Y84027D02*
D03*
X169327Y79573D02*
D03*
X164854Y104646D02*
D03*
X160400Y109100D02*
D03*
X156400Y113100D02*
D03*
X151946Y117554D02*
D03*
X86107Y125693D02*
D03*
X90561Y121239D02*
D03*
X173327Y83573D02*
D03*
X168873Y88027D02*
D03*
X145227Y54373D02*
D03*
X140773Y58827D02*
D03*
X105127Y135473D02*
D03*
X100673Y139927D02*
D03*
X72076Y111224D02*
D03*
X76530Y106770D02*
D03*
X56673Y95627D02*
D03*
X61127Y91173D02*
D03*
X57427Y87373D02*
D03*
X52973Y91827D02*
D03*
D22*
X129985Y38396D02*
D03*
X124696Y43685D02*
D03*
X120659Y34359D02*
D03*
D23*
X147245Y88238D02*
D03*
X145853Y89630D02*
D03*
X144461Y91022D02*
D03*
X143069Y92414D02*
D03*
X141677Y93806D02*
D03*
X140285Y95198D02*
D03*
X138893Y96590D02*
D03*
X137501Y97982D02*
D03*
X136109Y99374D02*
D03*
X134718Y100766D02*
D03*
X133326Y102158D02*
D03*
X131934Y103550D02*
D03*
X130542Y104942D02*
D03*
X129150Y106334D02*
D03*
X127758Y107726D02*
D03*
X126366Y109117D02*
D03*
X124974Y110510D02*
D03*
X123582Y111901D02*
D03*
X122190Y113293D02*
D03*
X120798Y114685D02*
D03*
X119406Y116077D02*
D03*
X118014Y117469D02*
D03*
X116622Y118861D02*
D03*
X115230Y120253D02*
D03*
X113838Y121645D02*
D03*
X70755Y78562D02*
D03*
X72147Y77170D02*
D03*
X73539Y75778D02*
D03*
X74931Y74386D02*
D03*
X76323Y72994D02*
D03*
X77715Y71602D02*
D03*
X79107Y70210D02*
D03*
X80499Y68818D02*
D03*
X81890Y67426D02*
D03*
X83283Y66034D02*
D03*
X84674Y64642D02*
D03*
X86066Y63250D02*
D03*
X87458Y61858D02*
D03*
X88850Y60466D02*
D03*
X90242Y59074D02*
D03*
X91634Y57683D02*
D03*
X93026Y56291D02*
D03*
X94418Y54899D02*
D03*
X95810Y53507D02*
D03*
X97202Y52115D02*
D03*
X98594Y50723D02*
D03*
X99986Y49331D02*
D03*
X101378Y47939D02*
D03*
X102770Y46547D02*
D03*
X104162Y45155D02*
D03*
D24*
Y121645D02*
D03*
X102770Y120253D02*
D03*
X101378Y118861D02*
D03*
X99986Y117469D02*
D03*
X98594Y116077D02*
D03*
X97202Y114685D02*
D03*
X95810Y113293D02*
D03*
X94418Y111901D02*
D03*
X93026Y110510D02*
D03*
X91634Y109117D02*
D03*
X90242Y107726D02*
D03*
X88850Y106334D02*
D03*
X87458Y104942D02*
D03*
X86066Y103550D02*
D03*
X84674Y102158D02*
D03*
X83283Y100766D02*
D03*
X81890Y99374D02*
D03*
X80499Y97982D02*
D03*
X79107Y96590D02*
D03*
X77715Y95198D02*
D03*
X76323Y93806D02*
D03*
X74931Y92414D02*
D03*
X73539Y91022D02*
D03*
X72147Y89630D02*
D03*
X70755Y88238D02*
D03*
X113838Y45155D02*
D03*
X115230Y46547D02*
D03*
X116622Y47939D02*
D03*
X118014Y49331D02*
D03*
X119406Y50723D02*
D03*
X120798Y52115D02*
D03*
X122190Y53507D02*
D03*
X123582Y54899D02*
D03*
X124974Y56291D02*
D03*
X126366Y57683D02*
D03*
X127758Y59074D02*
D03*
X129150Y60466D02*
D03*
X130542Y61858D02*
D03*
X131934Y63250D02*
D03*
X133326Y64642D02*
D03*
X134718Y66034D02*
D03*
X136109Y67426D02*
D03*
X137501Y68818D02*
D03*
X138893Y70210D02*
D03*
X140285Y71602D02*
D03*
X141677Y72994D02*
D03*
X143069Y74386D02*
D03*
X144461Y75778D02*
D03*
X145853Y77170D02*
D03*
X147245Y78562D02*
D03*
D25*
X169500Y134502D02*
D03*
Y117298D02*
D03*
X185000Y134402D02*
D03*
Y117198D02*
D03*
X190900Y62698D02*
D03*
Y79902D02*
D03*
D26*
X168279Y45360D02*
D03*
X168279Y49100D02*
D03*
X168279Y52840D02*
D03*
X178121D02*
D03*
X178121Y49100D02*
D03*
X178121Y45360D02*
D03*
D27*
X34584Y51108D02*
D03*
X43600D02*
D03*
X52616D02*
D03*
D28*
X43600Y77092D02*
D03*
D29*
X91573Y36273D02*
D03*
X96027Y40727D02*
D03*
X140000Y108800D02*
D03*
X144454Y113254D02*
D03*
X87073Y40973D02*
D03*
X91527Y45427D02*
D03*
X137773Y130173D02*
D03*
X142227Y134627D02*
D03*
X120300Y137400D02*
D03*
X115846Y132946D02*
D03*
X116727Y141027D02*
D03*
X112273Y136573D02*
D03*
X123800Y133900D02*
D03*
X119346Y129446D02*
D03*
X126373Y122473D02*
D03*
X130827Y126927D02*
D03*
X127327Y130427D02*
D03*
X122873Y125973D02*
D03*
D30*
X90712Y15100D02*
D03*
X79688D02*
D03*
D31*
X179300Y99537D02*
D03*
Y90304D02*
D03*
D32*
X185300Y91421D02*
D03*
Y97523D02*
D03*
X74400Y125349D02*
D03*
Y131451D02*
D03*
X34600Y135923D02*
D03*
Y129821D02*
D03*
X28800Y135937D02*
D03*
Y129835D02*
D03*
D33*
X177268Y22931D02*
D03*
D34*
X167200Y12759D02*
D03*
Y30200D02*
D03*
X177200D02*
D03*
X157200D02*
D03*
D35*
Y10220D02*
D03*
X177200D02*
D03*
D36*
X171489Y67583D02*
D03*
X167954Y71118D02*
D03*
X164418Y74654D02*
D03*
X160883Y78189D02*
D03*
X156317Y52411D02*
D03*
X152782Y55946D02*
D03*
X149246Y59482D02*
D03*
X145711Y63017D02*
D03*
D37*
X134704Y123885D02*
D03*
X129415Y118596D02*
D03*
X138741Y114559D02*
D03*
D38*
X151600Y98000D02*
D03*
X145475Y104125D02*
D03*
X150347Y108997D02*
D03*
X156472Y102872D02*
D03*
D39*
X156800Y91900D02*
D03*
X161115Y96215D02*
D03*
X160643Y88042D02*
D03*
X164957Y92357D02*
D03*
X146158Y130558D02*
D03*
X141842Y126242D02*
D03*
X82758Y53857D02*
D03*
X78443Y49542D02*
D03*
X69342Y58943D02*
D03*
X73658Y63257D02*
D03*
X145843Y122242D02*
D03*
X150157Y126558D02*
D03*
D40*
X87156Y115945D02*
D03*
X80627Y122473D02*
D03*
X82041Y110259D02*
D03*
X75512Y116788D02*
D03*
D41*
X27665Y123100D02*
D03*
X35735Y123100D02*
D03*
D42*
X67900Y133560D02*
D03*
X67900Y123560D02*
D03*
X42700Y123560D02*
D03*
Y133560D02*
D03*
D43*
X46800Y45100D02*
D03*
X53099Y45100D02*
D03*
X46800Y39700D02*
D03*
X53099D02*
D03*
X40450D02*
D03*
X34150D02*
D03*
X40450Y45100D02*
D03*
X34150D02*
D03*
D44*
X145500Y23750D02*
D03*
Y30050D02*
D03*
D45*
X190200Y31004D02*
D03*
Y18996D02*
D03*
D46*
X112151Y33400D02*
D03*
X106049D02*
D03*
D83*
X140736Y50383D02*
D03*
X136265Y54816D02*
D03*
D84*
X73683Y54564D02*
D03*
X78116Y59035D02*
D03*
X87017Y49636D02*
D03*
X82584Y45165D02*
D03*
D89*
X204724Y15748D02*
D03*
Y133858D02*
D03*
X15748D02*
D03*
Y15748D02*
D03*
D90*
X30700Y15000D02*
D03*
Y25000D02*
D03*
X40700Y15000D02*
D03*
Y25000D02*
D03*
X50700Y15000D02*
D03*
Y25000D02*
D03*
X60700Y15000D02*
D03*
Y25000D02*
D03*
X70700Y15000D02*
D03*
X125236Y23622D02*
D03*
X115236D02*
D03*
X105236D02*
D03*
D91*
X70700Y25000D02*
D03*
X95236Y23622D02*
D03*
M02*
