G04*
G04 #@! TF.GenerationSoftware,Altium Limited,Altium Designer,24.0.1 (36)*
G04*
G04 Layer_Color=32896*
%FSLAX25Y25*%
%MOIN*%
G70*
G04*
G04 #@! TF.SameCoordinates,BD3E70BB-0697-4B71-9AF7-6C14A59E7EE9*
G04*
G04*
G04 #@! TF.FilePolarity,Positive*
G04*
G01*
G75*
%ADD11C,0.01000*%
%ADD12C,0.01968*%
%ADD86C,0.02000*%
D11*
X196221Y31496D02*
Y41339D01*
X213228Y108268D02*
Y118110D01*
X196221Y108268D02*
Y118110D01*
X213228D01*
X196221Y31496D02*
X213228D01*
Y41339D01*
X24252Y31496D02*
Y41339D01*
X7244Y31496D02*
X24252D01*
X7244Y118110D02*
X24252D01*
X7244Y108268D02*
Y118110D01*
X24252Y108268D02*
Y118110D01*
X7244Y31496D02*
Y41339D01*
X89409Y18622D02*
Y28622D01*
X131063D01*
X100329Y18622D02*
Y28622D01*
X89409Y18622D02*
X131063D01*
Y28622D01*
D12*
X85008Y60453D02*
X78448D01*
X75169Y63733D01*
Y76852D01*
X78448Y80132D01*
X85008D01*
X88288Y76852D01*
Y63733D01*
X85008Y60453D01*
X94847D02*
Y80132D01*
X107966D01*
X127645Y60453D02*
X114526D01*
Y80132D01*
X127645D01*
X114526Y70292D02*
X121085D01*
X134204Y60453D02*
Y80132D01*
X144044D01*
X147324Y76852D01*
Y63733D01*
X144044Y60453D01*
X134204D01*
D86*
X157480Y16732D02*
X165354Y24606D01*
X157480Y123031D02*
X165354Y115157D01*
X62992Y123031D02*
X157480D01*
X55118Y24606D02*
X62992Y16732D01*
X165354Y24606D02*
Y115157D01*
X55118D02*
X62992Y123031D01*
X55118Y24606D02*
Y115157D01*
X62992Y16732D02*
X157480D01*
M02*
